<svg width="41" height="40" viewBox="0 0 41 40" fill="none" xmlns="http://www.w3.org/2000/svg">
<path fill-rule="evenodd" clip-rule="evenodd" d="M8.69689 7C7.09024 7 5.7878 8.2934 5.7878 9.88889V18.5556C5.7878 24.5386 10.672 29.3889 16.6969 29.3889H18.1514C22.3767 29.3889 26.0409 27.0034 27.853 23.5147C32.646 22.8439 36.3333 18.7543 36.3333 13.8095C36.3333 11.6442 34.5656 9.88889 32.3852 9.88889H29.0605C29.0605 8.2934 27.7581 7 26.1514 7H8.69689ZM27.606 9.88889C27.606 9.09114 26.9548 8.44444 26.1514 8.44444H8.69689C7.89357 8.44444 7.24234 9.09114 7.24234 9.88889V18.5556C7.24234 23.7409 11.4753 27.9444 16.6969 27.9444H18.1514C23.373 27.9444 27.606 23.7409 27.606 18.5556V9.88889ZM29.0605 11.3333L29.0605 18.5556C29.0605 19.7277 28.8731 20.8564 28.5263 21.9137C32.1766 21.0001 34.8787 17.7182 34.8787 13.8095C34.8787 12.442 33.7623 11.3333 32.3852 11.3333H29.0605Z" fill="url(#paint0_linear_845_2319)"/>
<path d="M5.06053 31.5556C4.65886 31.5556 4.33325 31.8789 4.33325 32.2778C4.33325 32.6767 4.65886 33 5.06053 33H29.7878C30.1895 33 30.5151 32.6767 30.5151 32.2778C30.5151 31.8789 30.1895 31.5556 29.7878 31.5556H5.06053Z" fill="url(#paint1_linear_845_2319)"/>
<defs>
<linearGradient id="paint0_linear_845_2319" x1="4.33325" y1="33" x2="38.9113" y2="28.9362" gradientUnits="userSpaceOnUse">
<stop stop-color="#A647AB"/>
<stop offset="1" stop-color="#184ECA"/>
</linearGradient>
<linearGradient id="paint1_linear_845_2319" x1="4.33325" y1="33" x2="38.9113" y2="28.9362" gradientUnits="userSpaceOnUse">
<stop stop-color="#A647AB"/>
<stop offset="1" stop-color="#184ECA"/>
</linearGradient>
</defs>
</svg>
