<svg width="75" height="85" viewBox="0 0 75 85" fill="none" xmlns="http://www.w3.org/2000/svg">
<path d="M1 37.5C1 17.3416 17.3416 1 37.5 1C57.6584 1 74 17.3416 74 37.5C74 52.414 65.0551 65.2409 52.2334 70.9046C46.6491 73.3713 41.0493 76.7897 37.8845 82.3162L37.4414 83.09L35.9976 80.8929C32.8574 76.1143 27.8311 73.1336 22.8111 70.9241C9.96557 65.2706 1 52.4312 1 37.5Z" fill="white" stroke="url(#paint0_linear_597_3721)" stroke-width="2"/>
<path d="M28.375 25.25C28.0766 25.25 27.7905 25.3685 27.5795 25.5795C27.3685 25.7905 27.25 26.0766 27.25 26.375V50.75H30.25V46.625C30.25 45.59 31.09 44.75 32.125 44.75H41.875C42.91 44.75 43.75 45.59 43.75 46.625V50.75H46.75V37.625C46.75 37.3266 46.6315 37.0405 46.4205 36.8295C46.2095 36.6185 45.9234 36.5 45.625 36.5H42.625C42.3266 36.5 42.0405 36.3815 41.8295 36.1705C41.6185 35.9595 41.5 35.6734 41.5 35.375V26.375C41.5 26.0766 41.3815 25.7905 41.1705 25.5795C40.9595 25.3685 40.6734 25.25 40.375 25.25H28.375ZM32.5 47V50.75H35.875V47H32.5ZM38.125 47V50.75H41.5V47H38.125ZM47.875 53H26.125C25.8266 53 25.5405 52.8815 25.3295 52.6705C25.1185 52.4595 25 52.1734 25 51.875V26.375C25 25.4799 25.3556 24.6214 25.9885 23.9885C26.6215 23.3556 27.4799 23 28.375 23H40.375C41.2701 23 42.1285 23.3556 42.7615 23.9885C43.3944 24.6214 43.75 25.4799 43.75 26.375V34.25H45.625C46.0682 34.25 46.5071 34.3373 46.9166 34.5069C47.326 34.6765 47.6981 34.9251 48.0115 35.2385C48.3249 35.5519 48.5735 35.924 48.7431 36.3334C48.9127 36.7429 49 37.1818 49 37.625V51.875C49 52.1734 48.8815 52.4595 48.6705 52.6705C48.4595 52.8815 48.1734 53 47.875 53ZM30.25 29.75C30.25 29.3522 30.408 28.9706 30.6893 28.6893C30.9706 28.408 31.3522 28.25 31.75 28.25C32.1478 28.25 32.5294 28.408 32.8107 28.6893C33.092 28.9706 33.25 29.3522 33.25 29.75C33.25 30.1478 33.092 30.5294 32.8107 30.8107C32.5294 31.092 32.1478 31.25 31.75 31.25C31.3522 31.25 30.9706 31.092 30.6893 30.8107C30.408 30.5294 30.25 30.1478 30.25 29.75ZM31.75 38.75C31.3522 38.75 30.9706 38.908 30.6893 39.1893C30.408 39.4706 30.25 39.8522 30.25 40.25C30.25 40.6478 30.408 41.0294 30.6893 41.3107C30.9706 41.592 31.3522 41.75 31.75 41.75C32.1478 41.75 32.5294 41.592 32.8107 41.3107C33.092 41.0294 33.25 40.6478 33.25 40.25C33.25 39.8522 33.092 39.4706 32.8107 39.1893C32.5294 38.908 32.1478 38.75 31.75 38.75ZM31.75 33.5C31.3522 33.5 30.9706 33.658 30.6893 33.9393C30.408 34.2206 30.25 34.6022 30.25 35C30.25 35.3978 30.408 35.7794 30.6893 36.0607C30.9706 36.342 31.3522 36.5 31.75 36.5C32.1478 36.5 32.5294 36.342 32.8107 36.0607C33.092 35.7794 33.25 35.3978 33.25 35C33.25 34.6022 33.092 34.2206 32.8107 33.9393C32.5294 33.658 32.1478 33.5 31.75 33.5ZM37 28.25C36.6022 28.25 36.2206 28.408 35.9393 28.6893C35.658 28.9706 35.5 29.3522 35.5 29.75C35.5 30.1478 35.658 30.5294 35.9393 30.8107C36.2206 31.092 36.6022 31.25 37 31.25C37.3978 31.25 37.7794 31.092 38.0607 30.8107C38.342 30.5294 38.5 30.1478 38.5 29.75C38.5 29.3522 38.342 28.9706 38.0607 28.6893C37.7794 28.408 37.3978 28.25 37 28.25ZM37 38.75C36.6022 38.75 36.2206 38.908 35.9393 39.1893C35.658 39.4706 35.5 39.8522 35.5 40.25C35.5 40.6478 35.658 41.0294 35.9393 41.3107C36.2206 41.592 36.6022 41.75 37 41.75C37.3978 41.75 37.7794 41.592 38.0607 41.3107C38.342 41.0294 38.5 40.6478 38.5 40.25C38.5 39.8522 38.342 39.4706 38.0607 39.1893C37.7794 38.908 37.3978 38.75 37 38.75ZM42.25 38.75C41.8522 38.75 41.4706 38.908 41.1893 39.1893C40.908 39.4706 40.75 39.8522 40.75 40.25C40.75 40.6478 40.908 41.0294 41.1893 41.3107C41.4706 41.592 41.8522 41.75 42.25 41.75C42.6478 41.75 43.0294 41.592 43.3107 41.3107C43.592 41.0294 43.75 40.6478 43.75 40.25C43.75 39.8522 43.592 39.4706 43.3107 39.1893C43.0294 38.908 42.6478 38.75 42.25 38.75ZM37 33.5C36.6022 33.5 36.2206 33.658 35.9393 33.9393C35.658 34.2206 35.5 34.6022 35.5 35C35.5 35.3978 35.658 35.7794 35.9393 36.0607C36.2206 36.342 36.6022 36.5 37 36.5C37.3978 36.5 37.7794 36.342 38.0607 36.0607C38.342 35.7794 38.5 35.3978 38.5 35C38.5 34.6022 38.342 34.2206 38.0607 33.9393C37.7794 33.658 37.3978 33.5 37 33.5Z" fill="#111111"/>
<defs>
<linearGradient id="paint0_linear_597_3721" x1="0" y1="85" x2="81.5825" y2="78.1263" gradientUnits="userSpaceOnUse">
<stop stop-color="#A647AB"/>
<stop offset="1" stop-color="#184ECA"/>
</linearGradient>
</defs>
</svg>
