<svg width="41" height="41" viewBox="0 0 41 41" fill="none" xmlns="http://www.w3.org/2000/svg">
<path d="M20.5 21.6836C23.2614 21.6836 25.5 19.445 25.5 16.6836C25.5 13.9222 23.2614 11.6836 20.5 11.6836C17.7386 11.6836 15.5 13.9222 15.5 16.6836C15.5 19.445 17.7386 21.6836 20.5 21.6836Z" stroke="black" stroke-width="2" stroke-linecap="round" stroke-linejoin="round"/>
<path d="M20.4998 3.3501C16.9636 3.3501 13.5722 4.75486 11.0717 7.25534C8.57126 9.75583 7.1665 13.1472 7.1665 16.6834C7.1665 24.7509 20.4998 36.6834 20.4998 36.6834C20.4998 36.6834 33.8332 24.7509 33.8332 16.6834C33.8332 13.1472 32.4284 9.75583 29.9279 7.25534C27.4274 4.75486 24.0361 3.3501 20.4998 3.3501Z" stroke="black" stroke-width="2" stroke-linecap="round" stroke-linejoin="round"/>
</svg>
