<svg width="100" height="126" viewBox="0 0 100 126" fill="none" xmlns="http://www.w3.org/2000/svg">
<path d="M2.33008 124.017L15.507 79.0168M2.33008 124.017H82.1668M2.33008 124.017V83.5931L15.507 79.0168M15.507 79.0168L82.1668 124.017M15.507 79.0168V63.7626L24.8084 57.6609M82.1668 124.017V1.98291M82.1668 124.017L46.5116 53.0846M82.1668 124.017L46.5116 24.8643M82.1668 124.017H97.6691V17.9999M82.1668 124.017L24.8084 57.6609M82.1668 1.98291L68.9899 6.55918L46.5116 24.8643M82.1668 1.98291L97.6691 17.9999M46.5116 24.8643V53.0846M46.5116 24.8643L97.6691 17.9999M46.5116 53.0846L24.8084 57.6609" stroke="#111111" stroke-width="3" stroke-linejoin="round"/>
</svg>
