<svg width="156" height="50" viewBox="0 0 156 50" fill="none" xmlns="http://www.w3.org/2000/svg">
<path d="M66.4099 22.9816C66.7458 22.9816 66.9858 22.741 66.9858 22.4042V17.0633H75.3355C77.3029 17.0633 78.8865 15.4755 78.8865 13.5028C78.8865 11.53 77.3029 9.94221 75.3355 9.94221H66.4099C66.074 9.94221 65.8341 10.1828 65.8341 10.5196C65.8341 10.8564 66.074 11.097 66.4099 11.097H75.3355C76.6791 11.097 77.7348 12.1555 77.7348 13.5028C77.7348 14.85 76.6791 15.9086 75.3355 15.9086H66.4099C66.074 15.9086 65.8341 16.1491 65.8341 16.486V22.4523C65.8341 22.741 66.074 22.9816 66.4099 22.9816Z" fill="black"/>
<path d="M81.8137 22.9335C81.9096 22.9816 82.0056 22.9816 82.0536 22.9816C82.2455 22.9816 82.4855 22.8853 82.5815 22.6448L85.4127 17.0152H90.6432L93.4744 22.6448C93.6184 22.9335 93.9543 23.0297 94.2422 22.8853C94.5302 22.741 94.6261 22.4042 94.4822 22.1155L88.5318 10.1828C88.4358 9.99032 88.2439 9.8941 88.004 9.8941C87.764 9.8941 87.5721 9.99032 87.4761 10.1828L81.5257 22.1155C81.4298 22.4523 81.5257 22.7891 81.8137 22.9335ZM88.0519 11.7706L90.1154 15.8604H86.0365L88.0519 11.7706Z" fill="black"/>
<path d="M109.694 9.8941C109.358 9.8941 109.118 10.1347 109.118 10.4715V15.8604H98.3691V10.4715C98.3691 10.1347 98.1292 9.8941 97.7932 9.8941C97.4573 9.8941 97.2174 10.1347 97.2174 10.4715V22.4042C97.2174 22.741 97.4573 22.9816 97.7932 22.9816C98.1292 22.9816 98.3691 22.741 98.3691 22.4042V17.0152H109.118V22.4042C109.118 22.741 109.358 22.9816 109.694 22.9816C110.03 22.9816 110.27 22.741 110.27 22.4042V10.4715C110.27 10.1828 109.982 9.8941 109.694 9.8941Z" fill="black"/>
<path d="M119.963 10.2309C119.867 10.0384 119.675 9.94221 119.435 9.94221C119.195 9.94221 119.003 10.0384 118.907 10.2309L112.957 22.1636C112.861 22.3561 112.861 22.5485 113.005 22.741C113.101 22.9335 113.293 23.0297 113.485 23.0297H125.386C125.578 23.0297 125.77 22.9335 125.865 22.741C125.961 22.5485 125.961 22.3561 125.913 22.1636L119.963 10.2309ZM114.397 21.8268L119.435 11.7706L124.474 21.8268H114.397Z" fill="black"/>
<path d="M62.2351 9.8941H50.3344C50.0945 9.8941 49.9025 10.0384 49.8065 10.2309C49.7585 10.279 49.7585 10.3753 49.7585 10.4715V22.4042C49.7585 22.6929 49.9985 22.9816 50.3344 22.9816H50.4304C50.7183 22.9816 51.0062 22.741 51.0062 22.4042V11.097H62.2831C62.571 11.097 62.8589 10.8564 62.8589 10.5196V10.4234C62.8109 10.1828 62.571 9.8941 62.2351 9.8941Z" fill="black"/>
<path d="M50.338 40.058C50.673 40.058 50.9123 39.8183 50.9123 39.4827V34.1134H58.8563L61.6798 39.7224C61.7755 39.9142 61.9669 40.058 62.2062 40.058C62.3019 40.058 62.3976 40.058 62.4454 40.0101C62.7326 39.8663 62.8283 39.5307 62.6847 39.243L59.8613 33.5382L62.6847 27.8333C62.8283 27.5457 62.7326 27.2101 62.4454 27.0662C62.1583 26.9224 61.8233 27.0183 61.6798 27.3059L58.8563 32.9149H50.9123V27.5456C50.9123 27.2101 50.673 26.9704 50.338 26.9704C50.0031 26.9704 49.7638 27.2101 49.7638 27.5456V39.4348C49.7159 39.8183 50.0031 40.058 50.338 40.058Z" fill="black"/>
<path d="M66.896 39.4827V34.1614H75.2228C77.1849 34.1614 78.7641 32.5794 78.7641 30.6138C78.7641 28.6483 77.1849 27.0662 75.2228 27.0662H66.3217C65.9867 27.0662 65.7475 27.3059 65.7475 27.6415C65.7475 27.9771 65.9867 28.2168 66.3217 28.2168H75.2228C76.5627 28.2168 77.6156 29.2715 77.6156 30.6138C77.6156 31.9561 76.5627 33.0108 75.2228 33.0108H66.3217C65.9867 33.0108 65.7475 33.2505 65.7475 33.5861V39.5307C65.7475 39.8663 65.9867 40.106 66.3217 40.106C66.6567 40.106 66.896 39.8183 66.896 39.4827Z" fill="black"/>
<path d="M125.136 27.0183H113.268C112.933 27.0183 112.694 27.258 112.694 27.5936C112.694 27.9292 112.933 28.1689 113.268 28.1689H118.628V39.4827C118.628 39.8183 118.867 40.058 119.202 40.058C119.537 40.058 119.776 39.8183 119.776 39.4827V28.1689H125.136C125.471 28.1689 125.71 27.9292 125.71 27.5936C125.71 27.3059 125.471 27.0183 125.136 27.0183Z" fill="black"/>
<path d="M134.085 27.3539C133.989 27.1621 133.798 27.0662 133.558 27.0662C133.319 27.0662 133.128 27.1621 133.032 27.3539L127.098 39.243C126.954 39.5307 127.05 39.8663 127.337 40.0101C127.433 40.058 127.529 40.058 127.576 40.058C127.768 40.058 128.007 39.9621 128.103 39.7224L130.926 34.1134H136.143L138.966 39.7224C139.11 40.0101 139.445 40.106 139.732 39.9621C140.019 39.8183 140.115 39.4827 139.971 39.1951L134.085 27.3539ZM131.549 32.9629L133.606 28.888L135.664 32.9629H131.549Z" fill="black"/>
<path d="M155.428 39.243L149.494 27.3539C149.399 27.1621 149.207 27.0662 148.968 27.0662C148.729 27.0662 148.537 27.1621 148.441 27.3539L142.507 39.243C142.364 39.5307 142.46 39.8663 142.747 40.0101C142.842 40.058 142.938 40.058 142.986 40.058C143.177 40.058 143.417 39.9621 143.512 39.7224L148.968 28.888L154.375 39.7224C154.519 40.0101 154.854 40.106 155.141 39.9621C155.285 39.9142 155.38 39.7704 155.428 39.6266C155.524 39.5307 155.524 39.3869 155.428 39.243Z" fill="black"/>
<path d="M94.4128 27.6415C94.4128 27.4977 94.3649 27.3059 94.2692 27.2101C94.0299 26.9704 93.695 26.9704 93.4557 27.2101L82.5925 38.0925V27.5456C82.5925 27.258 82.3533 27.0183 82.0661 27.0183H81.9704C81.6833 27.0183 81.444 27.258 81.444 27.5456V39.5307C81.444 39.8183 81.6833 40.058 81.9704 40.058H82.0661C82.2575 40.058 82.449 39.9621 82.5447 39.7704L93.3121 28.9839V39.5307C93.3121 39.8183 93.5514 40.058 93.8385 40.058H93.9342C94.2214 40.058 94.4606 39.8183 94.4606 39.5307L94.4128 27.6415Z" fill="black"/>
<path d="M109.248 36.7981C109.009 36.5584 108.626 36.6063 108.434 36.894C108.434 36.894 108.434 36.894 108.387 36.9419C108.291 37.0857 108.147 37.2296 108.052 37.3254L108.004 37.3734C107.908 37.4693 107.764 37.6131 107.669 37.709L107.621 37.7569C107.477 37.8528 107.334 37.9487 107.19 38.0445C107.142 38.0445 107.142 38.0925 107.094 38.0925C106.951 38.1884 106.807 38.2842 106.664 38.3322C106.52 38.4281 106.329 38.476 106.185 38.5239C106.137 38.5239 106.089 38.5719 106.089 38.5719C105.946 38.6198 105.754 38.6678 105.563 38.7157C105.515 38.7157 105.515 38.7157 105.467 38.7157C105.324 38.7636 105.132 38.7636 104.989 38.8116C104.941 38.8116 104.941 38.8116 104.893 38.8116C104.702 38.8116 104.51 38.8595 104.367 38.8595H104.319C104.271 38.8595 104.271 38.8595 104.223 38.8595C104.08 38.8595 103.936 38.8595 103.792 38.8595C103.745 38.8595 103.697 38.8595 103.697 38.8595C103.649 38.8595 103.649 38.8595 103.601 38.8595C103.266 38.8116 102.931 38.7636 102.644 38.6198C102.596 38.6198 102.596 38.6198 102.548 38.5719C102.405 38.5239 102.309 38.476 102.165 38.4281C102.117 38.4281 102.07 38.3801 102.022 38.3801C101.926 38.3322 101.782 38.2842 101.687 38.1884C101.639 38.1404 101.591 38.1404 101.543 38.0925C101.4 37.9966 101.304 37.9487 101.208 37.8528C101.113 37.8048 101.065 37.7569 101.017 37.709C100.969 37.661 100.873 37.6131 100.825 37.5172C100.778 37.4693 100.682 37.3734 100.634 37.3254C100.586 37.2775 100.538 37.2296 100.49 37.1816C100.443 37.1337 100.347 37.0378 100.299 36.9899C100.251 36.9419 100.203 36.894 100.155 36.7981C100.108 36.7502 100.06 36.6543 100.012 36.6063C99.9161 36.4625 99.8204 36.3666 99.7726 36.2228C99.7247 36.1749 99.7247 36.1269 99.6769 36.079C99.629 35.9831 99.5812 35.8872 99.4854 35.7434C99.4854 35.6955 99.4376 35.6475 99.4376 35.5996C99.3897 35.5037 99.3419 35.3599 99.294 35.264C99.294 35.2161 99.2462 35.1681 99.2462 35.1202C99.1983 34.9764 99.1504 34.8326 99.1026 34.6887V34.6408C99.0547 34.497 99.0547 34.3052 99.0069 34.1134C99.0069 34.1134 99.0069 34.1134 99.0069 34.0655C99.0069 33.9696 99.0069 33.8737 99.0069 33.7299C99.0069 33.634 99.0069 33.5382 99.0069 33.4423C99.0069 33.3464 99.0069 33.2505 99.0069 33.1546C99.0069 33.0588 99.0069 32.9629 99.0069 32.8191C99.0069 32.8191 99.0069 32.8191 99.0069 32.7711C99.0069 32.5794 99.0547 32.4355 99.1026 32.2438V32.1958C99.1504 32.052 99.1983 31.9082 99.2462 31.7644C99.2462 31.7164 99.294 31.6685 99.294 31.6206C99.3419 31.4767 99.3897 31.3809 99.4376 31.285C99.4376 31.237 99.4854 31.1891 99.4854 31.1412C99.5333 31.0453 99.5811 30.9015 99.6769 30.8056C99.7247 30.7576 99.7247 30.7097 99.7726 30.6618C99.8683 30.5179 99.9161 30.4221 100.012 30.2782C100.06 30.2303 100.108 30.1344 100.155 30.0865C100.203 30.0385 100.251 29.9427 100.299 29.8947C100.347 29.8468 100.443 29.7509 100.49 29.703C100.538 29.655 100.586 29.6071 100.634 29.5591C100.682 29.5112 100.778 29.4153 100.825 29.3674C100.873 29.3194 100.969 29.2715 101.017 29.2236C101.065 29.1756 101.16 29.1277 101.208 29.0797C101.304 28.9839 101.448 28.9359 101.591 28.84C101.639 28.7921 101.687 28.7921 101.735 28.7442C101.83 28.6962 101.926 28.6483 102.07 28.5524C102.117 28.5524 102.165 28.5045 102.213 28.5045C102.357 28.4565 102.452 28.4086 102.596 28.3606C102.644 28.3606 102.644 28.3606 102.692 28.3127C103.027 28.2168 103.314 28.1209 103.649 28.073C103.697 28.073 103.697 28.073 103.745 28.073C103.792 28.073 103.84 28.073 103.84 28.073C103.984 28.073 104.127 28.073 104.271 28.073C104.319 28.073 104.319 28.073 104.367 28.073H104.415C104.606 28.073 104.797 28.073 104.941 28.1209C104.989 28.1209 104.989 28.1209 105.037 28.1209C105.18 28.1209 105.372 28.1689 105.515 28.2168C105.563 28.2168 105.563 28.2168 105.611 28.2168C105.802 28.2648 105.946 28.3127 106.137 28.3606C106.185 28.3606 106.233 28.4086 106.233 28.4086C106.377 28.4565 106.568 28.5524 106.712 28.6003C106.855 28.6962 106.999 28.7441 107.142 28.84C107.19 28.84 107.19 28.888 107.238 28.888C107.382 28.9839 107.525 29.0797 107.669 29.1756L107.717 29.2236C107.86 29.3194 107.956 29.4153 108.052 29.5591L108.099 29.6071C108.243 29.7509 108.339 29.8468 108.434 29.9906C108.434 29.9906 108.434 29.9906 108.482 30.0385C108.674 30.2782 109.056 30.3262 109.296 30.1344C109.535 29.9427 109.535 29.6071 109.391 29.3674C109.344 29.2715 109.248 29.2236 109.2 29.1277C109.2 29.1277 109.2 29.0797 109.152 29.0797C109.056 28.9839 108.961 28.888 108.865 28.7921C108.817 28.7442 108.817 28.7442 108.769 28.6962C108.722 28.6483 108.626 28.5524 108.578 28.5045C108.53 28.4565 108.482 28.4565 108.482 28.4086C108.434 28.3606 108.339 28.3127 108.243 28.2168C108.195 28.1689 108.195 28.1689 108.147 28.1209C108.052 28.073 107.956 27.9771 107.86 27.9292L107.812 27.8812C107.717 27.7853 107.573 27.7374 107.477 27.6895C107.429 27.6895 107.429 27.6415 107.382 27.6415C107.286 27.5936 107.19 27.5457 107.094 27.4977C107.047 27.4977 106.999 27.4498 106.951 27.4498C106.855 27.4018 106.759 27.3539 106.712 27.3539C106.664 27.3539 106.616 27.3059 106.568 27.3059C106.472 27.258 106.377 27.2101 106.281 27.2101C106.233 27.2101 106.233 27.2101 106.185 27.1621C106.042 27.1142 105.898 27.0662 105.754 27.0662C105.707 27.0662 105.707 27.0662 105.659 27.0662C105.563 27.0662 105.467 27.0183 105.324 27.0183C105.276 27.0183 105.228 27.0183 105.18 27.0183C105.085 27.0183 104.989 26.9704 104.893 26.9704C104.845 26.9704 104.797 26.9704 104.75 26.9704C104.654 26.9704 104.558 26.9704 104.415 26.9704C104.367 26.9704 104.319 26.9704 104.271 26.9704C104.223 26.9704 104.175 26.9704 104.175 26.9704C103.984 26.9704 103.792 26.9704 103.601 27.0183C103.553 27.0183 103.505 27.0183 103.457 27.0183C102.787 27.1142 102.165 27.258 101.591 27.5456C101.543 27.5456 101.543 27.5936 101.495 27.5936C101.352 27.6895 101.16 27.7374 101.017 27.8333C100.969 27.8333 100.921 27.8812 100.921 27.8812C100.778 27.9771 100.586 28.073 100.443 28.2168C100.443 28.2168 100.395 28.2168 100.395 28.2647C100.251 28.3606 100.06 28.5045 99.9161 28.6483C99.8683 28.6962 99.8204 28.7442 99.7726 28.7921C99.6769 28.888 99.5812 28.9839 99.4854 29.0797C99.4376 29.1277 99.3897 29.2236 99.294 29.2715C99.1983 29.3674 99.1505 29.4633 99.0547 29.5591C99.0069 29.6071 98.959 29.703 98.9112 29.7509C98.8155 29.8947 98.7197 30.0385 98.624 30.1824C98.624 30.2303 98.5762 30.2303 98.5762 30.2782C98.4805 30.4221 98.3848 30.6138 98.3369 30.8056C98.3369 30.8535 98.2891 30.9015 98.2891 30.9494C98.2412 31.0932 98.1455 31.237 98.0976 31.3809C98.0976 31.4288 98.0498 31.4767 98.0498 31.5247C98.0019 31.7164 97.9541 31.8603 97.9062 32.052C97.9062 32.1 97.9062 32.1 97.9062 32.1479C97.8584 32.3397 97.8105 32.5794 97.8105 32.8191C97.8105 32.9629 97.8105 33.0588 97.8105 33.2026C97.8105 33.2985 97.8105 33.3943 97.8105 33.5382C97.8105 33.634 97.8105 33.7299 97.8105 33.8737C97.8105 34.0176 97.8105 34.1134 97.8105 34.2573C97.8584 34.497 97.8584 34.6887 97.9062 34.9284C97.9062 34.9764 97.9062 34.9764 97.9062 35.0243C97.9541 35.2161 98.0019 35.3599 98.0498 35.5516C98.0498 35.5996 98.0976 35.6475 98.0976 35.6955C98.1455 35.8393 98.1933 35.9831 98.2891 36.1269C98.2891 36.1749 98.3369 36.2228 98.3369 36.2708C98.4326 36.4625 98.5283 36.6063 98.5762 36.7981C98.5762 36.846 98.624 36.846 98.624 36.894C98.7197 37.0378 98.8155 37.1816 98.9112 37.3254C98.959 37.3734 99.0069 37.4693 99.0547 37.5172C99.1505 37.6131 99.1983 37.709 99.294 37.8048C99.3419 37.8528 99.3897 37.9487 99.4854 37.9966C99.5812 38.0925 99.6769 38.1884 99.7726 38.2842C99.8204 38.3322 99.8683 38.3801 99.9161 38.4281C100.06 38.5719 100.203 38.6678 100.395 38.8116C100.395 38.8116 100.443 38.8116 100.443 38.8595C100.586 38.9554 100.778 39.0992 100.921 39.1951C100.969 39.1951 101.017 39.243 101.017 39.243C101.16 39.3389 101.304 39.4348 101.495 39.4827C101.543 39.4827 101.543 39.5307 101.591 39.5307C102.165 39.7704 102.787 39.9621 103.457 40.058C103.505 40.058 103.553 40.058 103.601 40.058C103.792 40.058 103.984 40.106 104.175 40.106C104.223 40.106 104.271 40.106 104.271 40.106C104.319 40.106 104.367 40.106 104.415 40.106C104.51 40.106 104.606 40.106 104.75 40.106C104.797 40.106 104.845 40.106 104.893 40.106C104.989 40.106 105.085 40.106 105.18 40.058C105.228 40.058 105.276 40.058 105.324 40.058C105.419 40.058 105.563 40.0101 105.659 40.0101C105.707 40.0101 105.707 40.0101 105.754 40.0101C105.898 39.9621 106.042 39.9621 106.185 39.9142C106.233 39.9142 106.233 39.9142 106.281 39.8663C106.377 39.8183 106.472 39.8183 106.568 39.7704C106.616 39.7704 106.664 39.7224 106.712 39.7224C106.807 39.6745 106.903 39.6266 106.951 39.6266C106.999 39.6266 107.047 39.5786 107.094 39.5786C107.19 39.5307 107.286 39.4827 107.382 39.4348C107.429 39.4348 107.429 39.3869 107.477 39.3869C107.621 39.3389 107.717 39.243 107.812 39.1951L107.86 39.1472C107.956 39.0992 108.052 39.0033 108.147 38.9554C108.195 38.9075 108.243 38.9075 108.243 38.8595C108.339 38.8116 108.387 38.7636 108.482 38.6678C108.53 38.6198 108.578 38.6198 108.578 38.5719C108.674 38.5239 108.722 38.4281 108.769 38.3801C108.817 38.3322 108.817 38.3322 108.865 38.2842C108.961 38.1884 109.056 38.0925 109.152 37.9966C109.152 37.9966 109.152 37.9487 109.2 37.9487C109.248 37.8528 109.344 37.8048 109.391 37.709C109.487 37.3254 109.487 36.9899 109.248 36.7981Z" fill="black"/>
<path d="M2.47021 44.0466L7.00894 28.5466M2.47021 44.0466H29.9695M2.47021 44.0466V30.1229L7.00894 28.5466M7.00894 28.5466L29.9695 44.0466M7.00894 28.5466V23.2924L10.2127 21.1907M29.9695 44.0466V2.0127M29.9695 44.0466L17.6883 19.6144M29.9695 44.0466L17.6883 9.89405M29.9695 44.0466H35.3092V7.52964M29.9695 44.0466L10.2127 21.1907M29.9695 2.0127L25.4308 3.58897L17.6883 9.89405M29.9695 2.0127L35.3092 7.52964M17.6883 9.89405V19.6144M17.6883 9.89405L35.3092 7.52964M17.6883 19.6144L10.2127 21.1907" stroke="black" stroke-linejoin="round"/>
</svg>
