<svg width="155" height="50" viewBox="0 0 155 50" fill="none" xmlns="http://www.w3.org/2000/svg">
<path d="M65.9102 22.9816C66.2461 22.9816 66.486 22.741 66.486 22.4042V17.0633H74.8357C76.8032 17.0633 78.3867 15.4755 78.3867 13.5028C78.3867 11.53 76.8032 9.94222 74.8357 9.94222H65.9102C65.5743 9.94222 65.3343 10.1828 65.3343 10.5196C65.3343 10.8564 65.5743 11.097 65.9102 11.097H74.8357C76.1793 11.097 77.235 12.1555 77.235 13.5028C77.235 14.85 76.1793 15.9086 74.8357 15.9086H65.9102C65.5743 15.9086 65.3343 16.1491 65.3343 16.486V22.4523C65.3343 22.741 65.5743 22.9816 65.9102 22.9816Z" fill="white"/>
<path d="M81.3139 22.9335C81.4099 22.9816 81.5059 22.9816 81.5538 22.9816C81.7458 22.9816 81.9857 22.8854 82.0817 22.6448L84.9129 17.0152H90.1435L92.9747 22.6448C93.1187 22.9335 93.4546 23.0297 93.7425 22.8854C94.0304 22.741 94.1264 22.4042 93.9824 22.1155L88.0321 10.1828C87.9361 9.99033 87.7441 9.8941 87.5042 9.8941C87.2643 9.8941 87.0723 9.99033 86.9763 10.1828L81.026 22.1155C80.93 22.4523 81.026 22.7891 81.3139 22.9335ZM87.5522 11.7706L89.6156 15.8605H85.5367L87.5522 11.7706Z" fill="white"/>
<path d="M109.194 9.8941C108.858 9.8941 108.618 10.1347 108.618 10.4715V15.8605H97.8693V10.4715C97.8693 10.1347 97.6294 9.8941 97.2935 9.8941C96.9576 9.8941 96.7176 10.1347 96.7176 10.4715V22.4042C96.7176 22.741 96.9576 22.9816 97.2935 22.9816C97.6294 22.9816 97.8693 22.741 97.8693 22.4042V17.0152H108.618V22.4042C108.618 22.741 108.858 22.9816 109.194 22.9816C109.53 22.9816 109.77 22.741 109.77 22.4042V10.4715C109.77 10.1828 109.482 9.8941 109.194 9.8941Z" fill="white"/>
<path d="M119.463 10.2309C119.367 10.0384 119.175 9.94222 118.936 9.94222C118.696 9.94222 118.504 10.0384 118.408 10.2309L112.457 22.1636C112.361 22.3561 112.361 22.5485 112.505 22.741C112.601 22.9335 112.793 23.0297 112.985 23.0297H124.886C125.078 23.0297 125.27 22.9335 125.366 22.741C125.462 22.5485 125.462 22.3561 125.414 22.1636L119.463 10.2309ZM113.897 21.8268L118.936 11.7706L123.974 21.8268H113.897Z" fill="white"/>
<path d="M61.7353 9.8941H49.8346C49.5947 9.8941 49.4027 10.0384 49.3068 10.2309C49.2588 10.279 49.2588 10.3753 49.2588 10.4715V22.4042C49.2588 22.6929 49.4987 22.9816 49.8346 22.9816H49.9306C50.2185 22.9816 50.5064 22.741 50.5064 22.4042V11.097H61.7833C62.0712 11.097 62.3592 10.8564 62.3592 10.5196V10.4234C62.3112 10.1828 62.0712 9.8941 61.7353 9.8941Z" fill="white"/>
<path d="M49.8383 40.058C50.1733 40.058 50.4126 39.8183 50.4126 39.4827V34.1134H58.3565L61.18 39.7224C61.2757 39.9142 61.4671 40.058 61.7064 40.058C61.8021 40.058 61.8978 40.058 61.9457 40.0101C62.2328 39.8662 62.3285 39.5307 62.185 39.243L59.3615 33.5381L62.185 27.8333C62.3285 27.5456 62.2328 27.21 61.9457 27.0662C61.6586 26.9224 61.3236 27.0183 61.18 27.3059L58.3565 32.9149H50.4126V27.5456C50.4126 27.21 50.1733 26.9703 49.8383 26.9703C49.5033 26.9703 49.264 27.21 49.264 27.5456V39.4348C49.2162 39.8183 49.5033 40.058 49.8383 40.058Z" fill="white"/>
<path d="M66.3962 39.4827V34.1614H74.723C76.6851 34.1614 78.2643 32.5793 78.2643 30.6138C78.2643 28.6482 76.6851 27.0662 74.723 27.0662H65.822C65.487 27.0662 65.2477 27.3059 65.2477 27.6415C65.2477 27.9771 65.487 28.2168 65.822 28.2168H74.723C76.063 28.2168 77.1158 29.2715 77.1158 30.6138C77.1158 31.9561 76.063 33.0108 74.723 33.0108H65.822C65.487 33.0108 65.2477 33.2505 65.2477 33.5861V39.5307C65.2477 39.8662 65.487 40.1059 65.822 40.1059C66.1569 40.1059 66.3962 39.8183 66.3962 39.4827Z" fill="white"/>
<path d="M124.636 27.0183H112.768C112.433 27.0183 112.194 27.258 112.194 27.5936C112.194 27.9291 112.433 28.1688 112.768 28.1688H118.128V39.4827C118.128 39.8183 118.367 40.058 118.702 40.058C119.037 40.058 119.276 39.8183 119.276 39.4827V28.1688H124.636C124.971 28.1688 125.21 27.9291 125.21 27.5936C125.21 27.3059 124.971 27.0183 124.636 27.0183Z" fill="white"/>
<path d="M133.585 27.3539C133.489 27.1621 133.298 27.0662 133.059 27.0662C132.819 27.0662 132.628 27.1621 132.532 27.3539L126.598 39.243C126.455 39.5307 126.55 39.8662 126.837 40.0101C126.933 40.058 127.029 40.058 127.077 40.058C127.268 40.058 127.507 39.9621 127.603 39.7224L130.427 34.1134H135.643L138.466 39.7224C138.61 40.0101 138.945 40.1059 139.232 39.9621C139.519 39.8183 139.615 39.4827 139.471 39.1951L133.585 27.3539ZM131.049 32.9629L133.107 28.8879L135.164 32.9629H131.049Z" fill="white"/>
<path d="M154.929 39.243L148.994 27.3539C148.899 27.1621 148.707 27.0662 148.468 27.0662C148.229 27.0662 148.037 27.1621 147.942 27.3539L142.008 39.243C141.864 39.5307 141.96 39.8662 142.247 40.0101C142.343 40.058 142.438 40.058 142.486 40.058C142.678 40.058 142.917 39.9621 143.013 39.7224L148.468 28.8879L153.876 39.7224C154.019 40.0101 154.354 40.1059 154.641 39.9621C154.785 39.9142 154.881 39.7703 154.929 39.6265C155.024 39.5306 155.024 39.3868 154.929 39.243Z" fill="white"/>
<path d="M93.913 27.6415C93.913 27.4977 93.8652 27.3059 93.7695 27.21C93.5302 26.9703 93.1952 26.9703 92.9559 27.21L82.0928 38.0924V27.5456C82.0928 27.258 81.8535 27.0183 81.5664 27.0183H81.4706C81.1835 27.0183 80.9442 27.258 80.9442 27.5456V39.5307C80.9442 39.8183 81.1835 40.058 81.4706 40.058H81.5664C81.7578 40.058 81.9492 39.9621 82.0449 39.7704L92.8124 28.9838V39.5307C92.8124 39.8183 93.0516 40.058 93.3388 40.058H93.4345C93.7216 40.058 93.9609 39.8183 93.9609 39.5307L93.913 27.6415Z" fill="white"/>
<path d="M108.748 36.7981C108.509 36.5584 108.126 36.6063 107.935 36.8939C107.935 36.8939 107.935 36.8939 107.887 36.9419C107.791 37.0857 107.647 37.2295 107.552 37.3254L107.504 37.3733C107.408 37.4692 107.265 37.613 107.169 37.7089L107.121 37.7569C106.978 37.8527 106.834 37.9486 106.69 38.0445C106.643 38.0445 106.643 38.0924 106.595 38.0924C106.451 38.1883 106.308 38.2842 106.164 38.3321C106.02 38.428 105.829 38.476 105.685 38.5239C105.638 38.5239 105.59 38.5718 105.59 38.5718C105.446 38.6198 105.255 38.6677 105.063 38.7157C105.015 38.7157 105.015 38.7157 104.968 38.7157C104.824 38.7636 104.633 38.7636 104.489 38.8115C104.441 38.8115 104.441 38.8115 104.393 38.8115C104.202 38.8115 104.01 38.8595 103.867 38.8595H103.819C103.771 38.8595 103.771 38.8595 103.723 38.8595C103.58 38.8595 103.436 38.8595 103.293 38.8595C103.245 38.8595 103.197 38.8595 103.197 38.8595C103.149 38.8595 103.149 38.8595 103.101 38.8595C102.766 38.8116 102.431 38.7636 102.144 38.6198C102.096 38.6198 102.096 38.6198 102.048 38.5718C101.905 38.5239 101.809 38.476 101.666 38.428C101.618 38.428 101.57 38.3801 101.522 38.3801C101.426 38.3321 101.283 38.2842 101.187 38.1883C101.139 38.1404 101.091 38.1404 101.043 38.0924C100.9 37.9966 100.804 37.9486 100.708 37.8527C100.613 37.8048 100.565 37.7569 100.517 37.7089C100.469 37.661 100.373 37.613 100.326 37.5172C100.278 37.4692 100.182 37.3733 100.134 37.3254C100.086 37.2775 100.039 37.2295 99.9907 37.1816C99.9428 37.1336 99.8471 37.0378 99.7992 36.9898C99.7514 36.9419 99.7035 36.8939 99.6557 36.7981C99.6078 36.7501 99.56 36.6542 99.5121 36.6063C99.4164 36.4625 99.3207 36.3666 99.2728 36.2228C99.225 36.1748 99.225 36.1269 99.1771 36.079C99.1292 35.9831 99.0814 35.8872 98.9857 35.7434C98.9857 35.6954 98.9378 35.6475 98.9378 35.5996C98.89 35.5037 98.8421 35.3599 98.7943 35.264C98.7943 35.216 98.7464 35.1681 98.7464 35.1202C98.6986 34.9763 98.6507 34.8325 98.6028 34.6887V34.6408C98.555 34.4969 98.555 34.3052 98.5071 34.1134C98.5071 34.1134 98.5071 34.1134 98.5071 34.0655C98.5071 33.9696 98.5071 33.8737 98.5071 33.7299C98.5071 33.634 98.5071 33.5381 98.5071 33.4423C98.5071 33.3464 98.5071 33.2505 98.5071 33.1546C98.5071 33.0587 98.5071 32.9629 98.5071 32.819C98.5071 32.819 98.5071 32.819 98.5071 32.7711C98.5071 32.5793 98.555 32.4355 98.6028 32.2438V32.1958C98.6507 32.052 98.6986 31.9082 98.7464 31.7643C98.7464 31.7164 98.7943 31.6685 98.7943 31.6205C98.8421 31.4767 98.89 31.3808 98.9378 31.2849C98.9378 31.237 98.9857 31.1891 98.9857 31.1411C99.0335 31.0452 99.0814 30.9014 99.1771 30.8055C99.225 30.7576 99.225 30.7097 99.2728 30.6617C99.3685 30.5179 99.4164 30.422 99.5121 30.2782C99.56 30.2303 99.6078 30.1344 99.6557 30.0864C99.7035 30.0385 99.7514 29.9426 99.7992 29.8947C99.8471 29.8467 99.9428 29.7509 99.9907 29.7029C100.039 29.655 100.086 29.607 100.134 29.5591C100.182 29.5112 100.278 29.4153 100.326 29.3673C100.373 29.3194 100.469 29.2715 100.517 29.2235C100.565 29.1756 100.661 29.1276 100.708 29.0797C100.804 28.9838 100.948 28.9359 101.091 28.84C101.139 28.7921 101.187 28.7921 101.235 28.7441C101.331 28.6962 101.426 28.6482 101.57 28.5524C101.618 28.5524 101.666 28.5044 101.713 28.5044C101.857 28.4565 101.953 28.4085 102.096 28.3606C102.144 28.3606 102.144 28.3606 102.192 28.3127C102.527 28.2168 102.814 28.1209 103.149 28.073C103.197 28.073 103.197 28.073 103.245 28.073C103.293 28.073 103.341 28.073 103.341 28.073C103.484 28.073 103.628 28.073 103.771 28.073C103.819 28.073 103.819 28.073 103.867 28.073H103.915C104.106 28.073 104.298 28.073 104.441 28.1209C104.489 28.1209 104.489 28.1209 104.537 28.1209C104.68 28.1209 104.872 28.1688 105.015 28.2168C105.063 28.2168 105.063 28.2168 105.111 28.2168C105.303 28.2647 105.446 28.3127 105.638 28.3606C105.685 28.3606 105.733 28.4085 105.733 28.4085C105.877 28.4565 106.068 28.5524 106.212 28.6003C106.355 28.6962 106.499 28.7441 106.643 28.84C106.69 28.84 106.69 28.8879 106.738 28.8879C106.882 28.9838 107.025 29.0797 107.169 29.1756L107.217 29.2235C107.36 29.3194 107.456 29.4153 107.552 29.5591L107.6 29.607C107.743 29.7509 107.839 29.8467 107.935 29.9906C107.935 29.9906 107.935 29.9906 107.982 30.0385C108.174 30.2782 108.557 30.3261 108.796 30.1344C109.035 29.9426 109.035 29.607 108.892 29.3673C108.844 29.2715 108.748 29.2235 108.7 29.1276C108.7 29.1276 108.7 29.0797 108.652 29.0797C108.557 28.9838 108.461 28.8879 108.365 28.7921C108.317 28.7441 108.317 28.7441 108.27 28.6962C108.222 28.6482 108.126 28.5524 108.078 28.5044C108.03 28.4565 107.982 28.4565 107.982 28.4085C107.935 28.3606 107.839 28.3127 107.743 28.2168C107.695 28.1688 107.695 28.1688 107.647 28.1209C107.552 28.073 107.456 27.9771 107.36 27.9291L107.313 27.8812C107.217 27.7853 107.073 27.7374 106.978 27.6894C106.93 27.6894 106.93 27.6415 106.882 27.6415C106.786 27.5936 106.69 27.5456 106.595 27.4977C106.547 27.4977 106.499 27.4497 106.451 27.4497C106.355 27.4018 106.26 27.3539 106.212 27.3539C106.164 27.3539 106.116 27.3059 106.068 27.3059C105.973 27.258 105.877 27.21 105.781 27.21C105.733 27.21 105.733 27.21 105.685 27.1621C105.542 27.1142 105.398 27.0662 105.255 27.0662C105.207 27.0662 105.207 27.0662 105.159 27.0662C105.063 27.0662 104.968 27.0183 104.824 27.0183C104.776 27.0183 104.728 27.0183 104.68 27.0183C104.585 27.0183 104.489 26.9703 104.393 26.9703C104.345 26.9703 104.298 26.9703 104.25 26.9703C104.154 26.9703 104.058 26.9703 103.915 26.9703C103.867 26.9703 103.819 26.9703 103.771 26.9703C103.723 26.9703 103.675 26.9703 103.675 26.9703C103.484 26.9703 103.293 26.9703 103.101 27.0183C103.053 27.0183 103.006 27.0183 102.958 27.0183C102.288 27.1142 101.666 27.258 101.091 27.5456C101.043 27.5456 101.043 27.5936 100.996 27.5936C100.852 27.6894 100.661 27.7374 100.517 27.8333C100.469 27.8333 100.421 27.8812 100.421 27.8812C100.278 27.9771 100.086 28.073 99.9428 28.2168C99.9428 28.2168 99.8949 28.2168 99.8949 28.2647C99.7514 28.3606 99.5599 28.5044 99.4164 28.6482C99.3685 28.6962 99.3207 28.7441 99.2728 28.7921C99.1771 28.8879 99.0814 28.9838 98.9857 29.0797C98.9378 29.1276 98.89 29.2235 98.7943 29.2715C98.6986 29.3673 98.6507 29.4632 98.555 29.5591C98.5071 29.607 98.4593 29.7029 98.4114 29.7509C98.3157 29.8947 98.22 30.0385 98.1243 30.1823C98.1243 30.2303 98.0764 30.2303 98.0764 30.2782C97.9807 30.422 97.885 30.6138 97.8372 30.8055C97.8372 30.8535 97.7893 30.9014 97.7893 30.9494C97.7414 31.0932 97.6457 31.237 97.5979 31.3808C97.5979 31.4288 97.55 31.4767 97.55 31.5246C97.5022 31.7164 97.4543 31.8602 97.4065 32.052C97.4065 32.0999 97.4065 32.0999 97.4065 32.1479C97.3586 32.3396 97.3107 32.5793 97.3107 32.819C97.3107 32.9629 97.3107 33.0587 97.3107 33.2026C97.3107 33.2984 97.3107 33.3943 97.3107 33.5381C97.3107 33.634 97.3107 33.7299 97.3107 33.8737C97.3107 34.0175 97.3107 34.1134 97.3107 34.2572C97.3586 34.4969 97.3586 34.6887 97.4065 34.9284C97.4065 34.9763 97.4065 34.9763 97.4065 35.0243C97.4543 35.216 97.5022 35.3599 97.55 35.5516C97.55 35.5996 97.5979 35.6475 97.5979 35.6954C97.6457 35.8393 97.6936 35.9831 97.7893 36.1269C97.7893 36.1748 97.8372 36.2228 97.8372 36.2707C97.9329 36.4625 98.0286 36.6063 98.0764 36.7981C98.0764 36.846 98.1243 36.846 98.1243 36.8939C98.22 37.0378 98.3157 37.1816 98.4114 37.3254C98.4593 37.3733 98.5071 37.4692 98.555 37.5172C98.6507 37.613 98.6986 37.7089 98.7943 37.8048C98.8421 37.8527 98.89 37.9486 98.9857 37.9966C99.0814 38.0924 99.1771 38.1883 99.2728 38.2842C99.3207 38.3322 99.3685 38.3801 99.4164 38.428C99.5599 38.5718 99.7035 38.6677 99.8949 38.8115C99.8949 38.8115 99.9428 38.8116 99.9428 38.8595C100.086 38.9554 100.278 39.0992 100.421 39.1951C100.469 39.1951 100.517 39.243 100.517 39.243C100.661 39.3389 100.804 39.4348 100.996 39.4827C101.043 39.4827 101.043 39.5307 101.091 39.5307C101.666 39.7704 102.288 39.9621 102.958 40.058C103.006 40.058 103.053 40.058 103.101 40.058C103.293 40.058 103.484 40.1059 103.675 40.1059C103.723 40.1059 103.771 40.1059 103.771 40.1059C103.819 40.1059 103.867 40.1059 103.915 40.1059C104.01 40.1059 104.106 40.1059 104.25 40.1059C104.298 40.1059 104.345 40.1059 104.393 40.1059C104.489 40.1059 104.585 40.1059 104.68 40.058C104.728 40.058 104.776 40.058 104.824 40.058C104.92 40.058 105.063 40.0101 105.159 40.0101C105.207 40.0101 105.207 40.0101 105.255 40.0101C105.398 39.9621 105.542 39.9621 105.685 39.9142C105.733 39.9142 105.733 39.9142 105.781 39.8662C105.877 39.8183 105.973 39.8183 106.068 39.7704C106.116 39.7704 106.164 39.7224 106.212 39.7224C106.308 39.6745 106.403 39.6265 106.451 39.6265C106.499 39.6265 106.547 39.5786 106.595 39.5786C106.69 39.5307 106.786 39.4827 106.882 39.4348C106.93 39.4348 106.93 39.3868 106.978 39.3868C107.121 39.3389 107.217 39.243 107.313 39.1951L107.36 39.1471C107.456 39.0992 107.552 39.0033 107.647 38.9554C107.695 38.9074 107.743 38.9074 107.743 38.8595C107.839 38.8116 107.887 38.7636 107.982 38.6677C108.03 38.6198 108.078 38.6198 108.078 38.5718C108.174 38.5239 108.222 38.428 108.27 38.3801C108.317 38.3321 108.317 38.3322 108.365 38.2842C108.461 38.1883 108.557 38.0924 108.652 37.9966C108.652 37.9966 108.652 37.9486 108.7 37.9486C108.748 37.8527 108.844 37.8048 108.892 37.7089C108.987 37.3254 108.987 36.9898 108.748 36.7981Z" fill="white"/>
<path d="M1.97021 44.0466L6.50894 28.5466M1.97021 44.0466H29.4695M1.97021 44.0466V30.1229L6.50894 28.5466M6.50894 28.5466L29.4695 44.0466M6.50894 28.5466V23.2924L9.71274 21.1907M29.4695 44.0466V2.0127M29.4695 44.0466L17.1883 19.6144M29.4695 44.0466L17.1883 9.89405M29.4695 44.0466H34.8092V7.52964M29.4695 44.0466L9.71274 21.1907M29.4695 2.0127L24.9308 3.58897L17.1883 9.89405M29.4695 2.0127L34.8092 7.52964M17.1883 9.89405V19.6144M17.1883 9.89405L34.8092 7.52964M17.1883 19.6144L9.71274 21.1907" stroke="white" stroke-width="1.31356" stroke-linejoin="round"/>
</svg>
