<svg width="301" height="75" viewBox="0 0 301 75" fill="none" xmlns="http://www.w3.org/2000/svg">
<path d="M114.7 38.2C115.4 38.2 115.9 37.7 115.9 37V25.9H133.3C137.4 25.9 140.7 22.6 140.7 18.5C140.7 14.4 137.4 11.1 133.3 11.1H114.7C114 11.1 113.5 11.6 113.5 12.3C113.5 13 114 13.5 114.7 13.5H133.3C136.1 13.5 138.3 15.7 138.3 18.5C138.3 21.3 136.1 23.5 133.3 23.5H114.7C114 23.5 113.5 24 113.5 24.7V37.1C113.5 37.7 114 38.2 114.7 38.2Z" fill="#1D1E1C"/>
<path d="M146.8 38.1C147 38.2 147.2 38.2 147.3 38.2C147.7 38.2 148.2 38 148.4 37.5L154.3 25.8H165.2L171.1 37.5C171.4 38.1 172.1 38.3 172.7 38C173.3 37.7 173.5 37 173.2 36.4L160.8 11.6C160.6 11.2 160.2 11 159.7 11C159.2 11 158.8 11.2 158.6 11.6L146.2 36.4C146 37.1 146.2 37.8 146.8 38.1ZM159.8 14.9L164.1 23.4H155.6L159.8 14.9Z" fill="#1D1E1C"/>
<path d="M204.9 11C204.2 11 203.7 11.5 203.7 12.2V23.4H181.3V12.2C181.3 11.5 180.8 11 180.1 11C179.4 11 178.9 11.5 178.9 12.2V37C178.9 37.7 179.4 38.2 180.1 38.2C180.8 38.2 181.3 37.7 181.3 37V25.8H203.7V37C203.7 37.7 204.2 38.2 204.9 38.2C205.6 38.2 206.1 37.7 206.1 37V12.2C206.1 11.6 205.5 11 204.9 11Z" fill="#1D1E1C"/>
<path d="M226.3 11.7C226.1 11.3 225.7 11.1 225.2 11.1C224.7 11.1 224.3 11.3 224.1 11.7L211.7 36.5C211.5 36.9 211.5 37.3 211.8 37.7C212 38.1 212.4 38.3 212.8 38.3H237.6C238 38.3 238.4 38.1 238.6 37.7C238.8 37.3 238.8 36.9 238.7 36.5L226.3 11.7ZM214.7 35.8L225.2 14.9L235.7 35.8H214.7Z" fill="#1D1E1C"/>
<path d="M106 11H81.2C80.7 11 80.3 11.3 80.1 11.7C80 11.8 80 12 80 12.2V37C80 37.6 80.5 38.2 81.2 38.2H81.4C82 38.2 82.6 37.7 82.6 37V13.5H106.1C106.7 13.5 107.3 13 107.3 12.3V12.1C107.2 11.6 106.7 11 106 11Z" fill="#1D1E1C"/>
<path d="M81.2109 74.3C81.9109 74.3 82.411 73.8 82.411 73.1V61.9H99.0109L104.911 73.6C105.111 74 105.511 74.3 106.011 74.3C106.211 74.3 106.411 74.3 106.511 74.2C107.111 73.9 107.311 73.2 107.011 72.6L101.111 60.7L107.011 48.8C107.311 48.2 107.111 47.5 106.511 47.2C105.911 46.9 105.211 47.1 104.911 47.7L99.0109 59.4H82.411V48.2C82.411 47.5 81.9109 47 81.2109 47C80.5109 47 80.0109 47.5 80.0109 48.2V73C79.9109 73.8 80.5109 74.3 81.2109 74.3Z" fill="#1D1E1C"/>
<path d="M115.811 73.1V62H133.211C137.311 62 140.611 58.7 140.611 54.6C140.611 50.5 137.311 47.2 133.211 47.2H114.611C113.911 47.2 113.411 47.7 113.411 48.4C113.411 49.1 113.911 49.6 114.611 49.6H133.211C136.011 49.6 138.211 51.8 138.211 54.6C138.211 57.4 136.011 59.6 133.211 59.6H114.611C113.911 59.6 113.411 60.1 113.411 60.8V73.2C113.411 73.9 113.911 74.4 114.611 74.4C115.311 74.4 115.811 73.8 115.811 73.1Z" fill="#1D1E1C"/>
<path d="M237.511 47.1H212.711C212.011 47.1 211.511 47.6 211.511 48.3C211.511 49 212.011 49.5 212.711 49.5H223.911V73.1C223.911 73.8 224.411 74.3 225.111 74.3C225.811 74.3 226.311 73.8 226.311 73.1V49.5H237.511C238.211 49.5 238.711 49 238.711 48.3C238.711 47.7 238.211 47.1 237.511 47.1Z" fill="#1D1E1C"/>
<path d="M256.211 47.8C256.011 47.4 255.611 47.2 255.111 47.2C254.611 47.2 254.211 47.4 254.011 47.8L241.611 72.6C241.311 73.2 241.511 73.9 242.111 74.2C242.311 74.3 242.511 74.3 242.611 74.3C243.011 74.3 243.511 74.1 243.711 73.6L249.611 61.9H260.511L266.411 73.6C266.711 74.2 267.411 74.4 268.011 74.1C268.611 73.8 268.811 73.1 268.511 72.5L256.211 47.8ZM250.911 59.5L255.211 51L259.511 59.5H250.911Z" fill="#1D1E1C"/>
<path d="M300.811 72.6L288.411 47.8C288.211 47.4 287.811 47.2 287.311 47.2C286.811 47.2 286.411 47.4 286.211 47.8L273.811 72.6C273.511 73.2 273.711 73.9 274.311 74.2C274.511 74.3 274.711 74.3 274.811 74.3C275.211 74.3 275.711 74.1 275.911 73.6L287.311 51L298.611 73.6C298.911 74.2 299.611 74.4 300.211 74.1C300.511 74 300.711 73.7 300.811 73.4C301.011 73.2 301.011 72.9 300.811 72.6Z" fill="#1D1E1C"/>
<path d="M173.311 48.4C173.311 48.1 173.211 47.7 173.011 47.5C172.511 47 171.811 47 171.311 47.5L148.611 70.2V48.2C148.611 47.6 148.111 47.1 147.511 47.1H147.311C146.711 47.1 146.211 47.6 146.211 48.2V73.2C146.211 73.8 146.711 74.3 147.311 74.3H147.511C147.911 74.3 148.311 74.1 148.511 73.7L171.011 51.2V73.2C171.011 73.8 171.511 74.3 172.111 74.3H172.311C172.911 74.3 173.411 73.8 173.411 73.2L173.311 48.4Z" fill="#1D1E1C"/>
<path d="M204.311 67.5C203.811 67 203.011 67.1 202.611 67.7C202.611 67.7 202.611 67.7 202.511 67.8C202.311 68.1 202.011 68.4 201.811 68.6L201.711 68.7C201.511 68.9 201.211 69.2 201.011 69.4L200.911 69.5C200.611 69.7 200.311 69.9 200.011 70.1C199.911 70.1 199.911 70.2 199.811 70.2C199.511 70.4 199.211 70.6 198.911 70.7C198.611 70.9 198.211 71 197.911 71.1C197.811 71.1 197.711 71.2 197.711 71.2C197.411 71.3 197.011 71.4 196.611 71.5C196.511 71.5 196.511 71.5 196.411 71.5C196.111 71.6 195.711 71.6 195.411 71.7C195.311 71.7 195.311 71.7 195.211 71.7C194.811 71.7 194.411 71.8 194.111 71.8H194.011C193.911 71.8 193.911 71.8 193.811 71.8C193.511 71.8 193.211 71.8 192.911 71.8C192.811 71.8 192.711 71.8 192.711 71.8C192.611 71.8 192.611 71.8 192.511 71.8C191.811 71.7 191.111 71.6 190.511 71.3C190.411 71.3 190.411 71.3 190.311 71.2C190.011 71.1 189.811 71 189.511 70.9C189.411 70.9 189.311 70.8 189.211 70.8C189.011 70.7 188.711 70.6 188.511 70.4C188.411 70.3 188.311 70.3 188.211 70.2C187.911 70 187.711 69.9 187.511 69.7C187.311 69.6 187.211 69.5 187.111 69.4C187.011 69.3 186.811 69.2 186.711 69C186.611 68.9 186.411 68.7 186.311 68.6C186.211 68.5 186.111 68.4 186.011 68.3C185.911 68.2 185.711 68 185.611 67.9C185.511 67.8 185.411 67.7 185.311 67.5C185.211 67.4 185.111 67.2 185.011 67.1C184.811 66.8 184.611 66.6 184.511 66.3C184.411 66.2 184.411 66.1 184.311 66C184.211 65.8 184.111 65.6 183.911 65.3C183.911 65.2 183.811 65.1 183.811 65C183.711 64.8 183.611 64.5 183.511 64.3C183.511 64.2 183.411 64.1 183.411 64C183.311 63.7 183.211 63.4 183.111 63.1V63C183.011 62.7 183.011 62.3 182.911 61.9C182.911 61.9 182.911 61.9 182.911 61.8C182.911 61.6 182.911 61.4 182.911 61.1C182.911 60.9 182.911 60.7 182.911 60.5C182.911 60.3 182.911 60.1 182.911 59.9C182.911 59.7 182.911 59.5 182.911 59.2C182.911 59.2 182.911 59.2 182.911 59.1C182.911 58.7 183.011 58.4 183.111 58V57.9C183.211 57.6 183.311 57.3 183.411 57C183.411 56.9 183.511 56.8 183.511 56.7C183.611 56.4 183.711 56.2 183.811 56C183.811 55.9 183.911 55.8 183.911 55.7C184.011 55.5 184.111 55.2 184.311 55C184.411 54.9 184.411 54.8 184.511 54.7C184.711 54.4 184.811 54.2 185.011 53.9C185.111 53.8 185.211 53.6 185.311 53.5C185.411 53.4 185.511 53.2 185.611 53.1C185.711 53 185.911 52.8 186.011 52.7C186.111 52.6 186.211 52.5 186.311 52.4C186.411 52.3 186.611 52.1 186.711 52C186.811 51.9 187.011 51.8 187.111 51.7C187.211 51.6 187.411 51.5 187.511 51.4C187.711 51.2 188.011 51.1 188.311 50.9C188.411 50.8 188.511 50.8 188.611 50.7C188.811 50.6 189.011 50.5 189.311 50.3C189.411 50.3 189.511 50.2 189.611 50.2C189.911 50.1 190.111 50 190.411 49.9C190.511 49.9 190.511 49.9 190.611 49.8C191.311 49.6 191.911 49.4 192.611 49.3C192.711 49.3 192.711 49.3 192.811 49.3C192.911 49.3 193.011 49.3 193.011 49.3C193.311 49.3 193.611 49.3 193.911 49.3C194.011 49.3 194.011 49.3 194.111 49.3H194.211C194.611 49.3 195.011 49.3 195.311 49.4C195.411 49.4 195.411 49.4 195.511 49.4C195.811 49.4 196.211 49.5 196.511 49.6C196.611 49.6 196.611 49.6 196.711 49.6C197.111 49.7 197.411 49.8 197.811 49.9C197.911 49.9 198.011 50 198.011 50C198.311 50.1 198.711 50.3 199.011 50.4C199.311 50.6 199.611 50.7 199.911 50.9C200.011 50.9 200.011 51 200.111 51C200.411 51.2 200.711 51.4 201.011 51.6L201.111 51.7C201.411 51.9 201.611 52.1 201.811 52.4L201.911 52.5C202.211 52.8 202.411 53 202.611 53.3C202.611 53.3 202.611 53.3 202.711 53.4C203.111 53.9 203.911 54 204.411 53.6C204.911 53.2 204.911 52.5 204.611 52C204.511 51.8 204.311 51.7 204.211 51.5C204.211 51.5 204.211 51.4 204.111 51.4C203.911 51.2 203.711 51 203.511 50.8C203.411 50.7 203.411 50.7 203.311 50.6C203.211 50.5 203.011 50.3 202.911 50.2C202.811 50.1 202.711 50.1 202.711 50C202.611 49.9 202.411 49.8 202.211 49.6C202.111 49.5 202.111 49.5 202.011 49.4C201.811 49.3 201.611 49.1 201.411 49L201.311 48.9C201.111 48.7 200.811 48.6 200.611 48.5C200.511 48.5 200.511 48.4 200.411 48.4C200.211 48.3 200.011 48.2 199.811 48.1C199.711 48.1 199.611 48 199.511 48C199.311 47.9 199.111 47.8 199.011 47.8C198.911 47.8 198.811 47.7 198.711 47.7C198.511 47.6 198.311 47.5 198.111 47.5C198.011 47.5 198.011 47.5 197.911 47.4C197.611 47.3 197.311 47.2 197.011 47.2C196.911 47.2 196.911 47.2 196.811 47.2C196.611 47.2 196.411 47.1 196.111 47.1C196.011 47.1 195.911 47.1 195.811 47.1C195.611 47.1 195.411 47 195.211 47C195.111 47 195.011 47 194.911 47C194.711 47 194.511 47 194.211 47C194.111 47 194.011 47 193.911 47C193.811 47 193.711 47 193.711 47C193.311 47 192.911 47 192.511 47.1C192.411 47.1 192.311 47.1 192.211 47.1C190.811 47.3 189.511 47.6 188.311 48.2C188.211 48.2 188.211 48.3 188.111 48.3C187.811 48.5 187.411 48.6 187.111 48.8C187.011 48.8 186.911 48.9 186.911 48.9C186.611 49.1 186.211 49.3 185.911 49.6C185.911 49.6 185.811 49.6 185.811 49.7C185.511 49.9 185.111 50.2 184.811 50.5C184.711 50.6 184.611 50.7 184.511 50.8C184.311 51 184.111 51.2 183.911 51.4C183.811 51.5 183.711 51.7 183.511 51.8C183.311 52 183.211 52.2 183.011 52.4C182.911 52.5 182.811 52.7 182.711 52.8C182.511 53.1 182.311 53.4 182.111 53.7C182.111 53.8 182.011 53.8 182.011 53.9C181.811 54.2 181.611 54.6 181.511 55C181.511 55.1 181.411 55.2 181.411 55.3C181.311 55.6 181.111 55.9 181.011 56.2C181.011 56.3 180.911 56.4 180.911 56.5C180.811 56.9 180.711 57.2 180.611 57.6C180.611 57.7 180.611 57.7 180.611 57.8C180.511 58.2 180.411 58.7 180.411 59.2C180.411 59.5 180.411 59.7 180.411 60C180.411 60.2 180.411 60.4 180.411 60.7C180.411 60.9 180.411 61.1 180.411 61.4C180.411 61.7 180.411 61.9 180.411 62.2C180.511 62.7 180.511 63.1 180.611 63.6C180.611 63.7 180.611 63.7 180.611 63.8C180.711 64.2 180.811 64.5 180.911 64.9C180.911 65 181.011 65.1 181.011 65.2C181.111 65.5 181.211 65.8 181.411 66.1C181.411 66.2 181.511 66.3 181.511 66.4C181.711 66.8 181.911 67.1 182.011 67.5C182.011 67.6 182.111 67.6 182.111 67.7C182.311 68 182.511 68.3 182.711 68.6C182.811 68.7 182.911 68.9 183.011 69C183.211 69.2 183.311 69.4 183.511 69.6C183.611 69.7 183.711 69.9 183.911 70C184.111 70.2 184.311 70.4 184.511 70.6C184.611 70.7 184.711 70.8 184.811 70.9C185.111 71.2 185.411 71.4 185.811 71.7C185.811 71.7 185.911 71.7 185.911 71.8C186.211 72 186.611 72.3 186.911 72.5C187.011 72.5 187.111 72.6 187.111 72.6C187.411 72.8 187.711 73 188.111 73.1C188.211 73.1 188.211 73.2 188.311 73.2C189.511 73.7 190.811 74.1 192.211 74.3C192.311 74.3 192.411 74.3 192.511 74.3C192.911 74.3 193.311 74.4 193.711 74.4C193.811 74.4 193.911 74.4 193.911 74.4C194.011 74.4 194.111 74.4 194.211 74.4C194.411 74.4 194.611 74.4 194.911 74.4C195.011 74.4 195.111 74.4 195.211 74.4C195.411 74.4 195.611 74.4 195.811 74.3C195.911 74.3 196.011 74.3 196.111 74.3C196.311 74.3 196.611 74.2 196.811 74.2C196.911 74.2 196.911 74.2 197.011 74.2C197.311 74.1 197.611 74.1 197.911 74C198.011 74 198.011 74 198.111 73.9C198.311 73.8 198.511 73.8 198.711 73.7C198.811 73.7 198.911 73.6 199.011 73.6C199.211 73.5 199.411 73.4 199.511 73.4C199.611 73.4 199.711 73.3 199.811 73.3C200.011 73.2 200.211 73.1 200.411 73C200.511 73 200.511 72.9 200.611 72.9C200.911 72.8 201.111 72.6 201.311 72.5L201.411 72.4C201.611 72.3 201.811 72.1 202.011 72C202.111 71.9 202.211 71.9 202.211 71.8C202.411 71.7 202.511 71.6 202.711 71.4C202.811 71.3 202.911 71.3 202.911 71.2C203.111 71.1 203.211 70.9 203.311 70.8C203.411 70.7 203.411 70.7 203.511 70.6C203.711 70.4 203.911 70.2 204.111 70C204.111 70 204.111 69.9 204.211 69.9C204.311 69.7 204.511 69.6 204.611 69.4C204.811 68.6 204.811 67.9 204.311 67.5Z" fill="#1D1E1C"/>
<path d="M1 74L8.73984 47.0813M1 74H47.8943M1 74V49.8188L8.73984 47.0813M8.73984 47.0813L47.8943 74M8.73984 47.0813V37.9563L14.2033 34.3063M47.8943 74V1M47.8943 74L26.9512 31.5688M47.8943 74L26.9512 14.6875M47.8943 74H57V10.5813M47.8943 74L14.2033 34.3063M47.8943 1L40.1545 3.7375L26.9512 14.6875M47.8943 1L57 10.5813M26.9512 14.6875V31.5688M26.9512 14.6875L57 10.5813M26.9512 31.5688L14.2033 34.3063" stroke="black" stroke-width="2" stroke-linejoin="round"/>
</svg>
