<svg width="319" height="110" viewBox="0 0 319 110" fill="none" xmlns="http://www.w3.org/2000/svg">
<path d="M136.664 40.6629C137.349 40.6629 137.838 40.1738 137.838 39.489V28.6305H154.859C158.87 28.6305 162.098 25.4023 162.098 21.3915C162.098 17.3807 158.87 14.1525 154.859 14.1525H136.664C135.979 14.1525 135.49 14.6416 135.49 15.3264C135.49 16.0112 135.979 16.5003 136.664 16.5003H154.859C157.598 16.5003 159.75 18.6524 159.75 21.3915C159.75 24.1306 157.598 26.2827 154.859 26.2827H136.664C135.979 26.2827 135.49 26.7719 135.49 27.4566V39.5869C135.49 40.1738 135.979 40.6629 136.664 40.6629Z" fill="url(#paint0_linear_6876_65124)"/>
<path d="M168.065 40.5651C168.261 40.6629 168.457 40.6629 168.555 40.6629C168.946 40.6629 169.435 40.4673 169.631 39.9782L175.402 28.5327H186.065L191.837 39.9782C192.13 40.5651 192.815 40.7608 193.402 40.4673C193.989 40.1738 194.185 39.489 193.891 38.9021L181.761 14.6416C181.565 14.2503 181.174 14.0547 180.685 14.0547C180.196 14.0547 179.804 14.2503 179.609 14.6416L167.479 38.9021C167.283 39.5869 167.479 40.2716 168.065 40.5651ZM180.783 17.8698L184.989 26.1849H176.674L180.783 17.8698Z" fill="url(#paint1_linear_6876_65124)"/>
<path d="M224.901 14.0547C224.217 14.0547 223.728 14.5438 223.728 15.2286V26.1849H201.815V15.2286C201.815 14.5438 201.326 14.0547 200.641 14.0547C199.956 14.0547 199.467 14.5438 199.467 15.2286V39.489C199.467 40.1738 199.956 40.6629 200.641 40.6629C201.326 40.6629 201.815 40.1738 201.815 39.489V28.5327H223.728V39.489C223.728 40.1738 224.217 40.6629 224.901 40.6629C225.586 40.6629 226.075 40.1738 226.075 39.489V15.2286C226.075 14.6416 225.488 14.0547 224.901 14.0547Z" fill="url(#paint2_linear_6876_65124)"/>
<path d="M245.836 14.7395C245.64 14.3482 245.249 14.1525 244.76 14.1525C244.271 14.1525 243.879 14.3482 243.684 14.7395L231.554 38.9999C231.358 39.3912 231.358 39.7825 231.651 40.1738C231.847 40.5651 232.238 40.7607 232.63 40.7607H256.89C257.281 40.7607 257.673 40.5651 257.868 40.1738C258.064 39.7825 258.064 39.3912 257.966 38.9999L245.836 14.7395ZM234.488 38.3151L244.76 17.8698L255.031 38.3151H234.488Z" fill="url(#paint3_linear_6876_65124)"/>
<path d="M128.153 14.0547H103.893C103.404 14.0547 103.012 14.3482 102.817 14.7395C102.719 14.8373 102.719 15.0329 102.719 15.2286V39.489C102.719 40.076 103.208 40.6629 103.893 40.6629H104.088C104.675 40.6629 105.262 40.1738 105.262 39.489V16.5003H128.251C128.838 16.5003 129.425 16.0112 129.425 15.3264V15.1307C129.327 14.6416 128.838 14.0547 128.153 14.0547Z" fill="url(#paint4_linear_6876_65124)"/>
<path d="M110.49 103.563L112.74 99.1613C112.838 98.9656 112.74 98.6722 112.545 98.5744C112.349 98.4765 112.056 98.5744 111.958 98.77L109.806 103.172H108.143V98.9657C108.143 98.77 107.947 98.5744 107.751 98.5744C107.556 98.5744 107.36 98.77 107.36 98.9657V103.172H105.697L103.545 98.77C103.447 98.5744 103.251 98.4765 102.958 98.5744C102.762 98.6722 102.664 98.8678 102.762 99.1613L105.012 103.563L102.762 107.965C102.762 108.063 102.664 108.161 102.762 108.259C102.762 108.357 102.86 108.455 102.958 108.455C103.154 108.552 103.447 108.455 103.545 108.259L105.697 103.857H107.36V108.063C107.36 108.259 107.556 108.455 107.751 108.455C107.947 108.455 108.143 108.259 108.143 108.063V103.857H109.806L111.958 108.259C112.056 108.357 112.153 108.455 112.349 108.455C112.447 108.455 112.447 108.455 112.545 108.455C112.74 108.357 112.838 108.161 112.74 107.868L110.49 103.563Z" fill="url(#paint5_linear_6876_65124)"/>
<path d="M141.599 98.77C141.501 98.6722 141.403 98.5744 141.207 98.5744C141.012 98.5744 140.914 98.6722 140.816 98.77L136.218 107.965C136.218 108.063 136.12 108.161 136.218 108.259C136.218 108.357 136.316 108.455 136.414 108.455C136.512 108.455 136.512 108.455 136.609 108.455C136.805 108.455 136.903 108.357 137.001 108.259L141.207 99.7482L145.414 108.259C145.511 108.455 145.805 108.552 146.001 108.455C146.098 108.455 146.196 108.357 146.196 108.259C146.196 108.161 146.196 108.063 146.196 107.965L141.599 98.77Z" fill="url(#paint6_linear_6876_65124)"/>
<path d="M157.935 98.5744C155.196 98.5744 152.946 100.824 152.946 103.563C152.946 106.302 155.196 108.552 157.935 108.552C160.674 108.552 162.924 106.302 162.924 103.563C162.924 100.824 160.674 98.5744 157.935 98.5744ZM157.935 107.77C155.587 107.77 153.729 105.911 153.729 103.563C153.729 101.216 155.587 99.3569 157.935 99.3569C160.283 99.3569 162.142 101.216 162.142 103.563C162.142 105.911 160.283 107.77 157.935 107.77Z" fill="url(#paint7_linear_6876_65124)"/>
<path d="M201.076 103.563L203.326 99.1613C203.424 98.9656 203.326 98.6722 203.13 98.5744C202.934 98.4765 202.641 98.5744 202.543 98.77L200.391 103.172H194.13V98.9657C194.13 98.77 193.935 98.5744 193.739 98.5744C193.543 98.5744 193.348 98.77 193.348 98.9657V108.161C193.348 108.357 193.543 108.552 193.739 108.552C193.935 108.552 194.13 108.357 194.13 108.161V103.955H200.391L202.543 108.357C202.641 108.455 202.739 108.552 202.934 108.552C203.032 108.552 203.032 108.552 203.13 108.552C203.326 108.455 203.424 108.259 203.326 107.965L201.076 103.563Z" fill="url(#paint8_linear_6876_65124)"/>
<path d="M214.967 98.5744C212.228 98.5744 209.978 100.824 209.978 103.563C209.978 106.302 212.228 108.552 214.967 108.552C217.706 108.552 219.956 106.302 219.956 103.563C219.956 100.824 217.706 98.5744 214.967 98.5744ZM214.967 107.77C212.619 107.77 210.76 105.911 210.76 103.563C210.76 101.216 212.619 99.3569 214.967 99.3569C217.315 99.3569 219.173 101.216 219.173 103.563C219.173 105.813 217.315 107.77 214.967 107.77Z" fill="url(#paint9_linear_6876_65124)"/>
<path d="M236.293 98.5744C236.097 98.5744 235.901 98.5744 235.803 98.77L231.597 107.281L227.391 98.77C227.293 98.5744 227.097 98.4765 226.901 98.5744C226.706 98.5744 226.608 98.77 226.608 98.9657V108.161C226.608 108.357 226.804 108.552 226.999 108.552C227.195 108.552 227.391 108.357 227.391 108.161V100.726L231.206 108.357C231.304 108.455 231.401 108.552 231.597 108.552C231.793 108.552 231.89 108.455 231.988 108.357L235.803 100.726V108.161C235.803 108.357 235.999 108.552 236.195 108.552C236.39 108.552 236.586 108.357 236.586 108.161V98.9657C236.586 98.77 236.488 98.5744 236.293 98.5744Z" fill="url(#paint10_linear_6876_65124)"/>
<path d="M252.825 98.5744H243.629C243.434 98.5744 243.238 98.77 243.238 98.9656V108.161C243.238 108.357 243.434 108.552 243.629 108.552C243.825 108.552 244.021 108.357 244.021 108.161V99.3569H252.434V108.161C252.434 108.357 252.629 108.552 252.825 108.552C253.021 108.552 253.216 108.357 253.216 108.161V98.9656C253.216 98.77 253.021 98.5744 252.825 98.5744Z" fill="url(#paint11_linear_6876_65124)"/>
<path d="M265.151 98.77C265.053 98.6722 264.955 98.5744 264.759 98.5744C264.564 98.5744 264.466 98.6722 264.368 98.77L259.77 107.965C259.77 108.063 259.673 108.161 259.77 108.259C259.77 108.357 259.868 108.455 259.966 108.455C260.064 108.455 260.064 108.455 260.162 108.455C260.357 108.455 260.455 108.357 260.553 108.259L264.759 99.7482L268.966 108.259C269.064 108.455 269.357 108.552 269.553 108.455C269.651 108.455 269.749 108.357 269.749 108.259C269.749 108.161 269.749 108.063 269.749 107.965L265.151 98.77Z" fill="url(#paint12_linear_6876_65124)"/>
<path d="M300.759 103.563L303.009 99.1613C303.107 98.9656 303.009 98.6722 302.813 98.5744C302.618 98.4765 302.324 98.5744 302.226 98.77L300.074 103.172H293.813V98.9657C293.813 98.77 293.618 98.5744 293.422 98.5744C293.226 98.5744 293.031 98.77 293.031 98.9657V108.161C293.031 108.357 293.226 108.552 293.422 108.552C293.618 108.552 293.813 108.357 293.813 108.161V103.955H300.074L302.226 108.357C302.324 108.455 302.422 108.552 302.618 108.552C302.715 108.552 302.715 108.552 302.813 108.552C303.009 108.455 303.107 108.259 303.009 107.965L300.759 103.563Z" fill="url(#paint13_linear_6876_65124)"/>
<path d="M318.269 106.498C316.606 108.161 313.965 108.161 312.302 106.498C310.639 104.835 310.639 102.194 312.302 100.531C313.965 98.8678 316.606 98.8678 318.269 100.531C318.465 100.726 318.661 100.726 318.856 100.531C319.052 100.335 319.052 100.14 318.856 99.9439C316.9 97.9874 313.77 97.9874 311.813 99.9439C309.857 101.9 309.857 105.031 311.813 106.987C313.77 108.944 316.9 108.944 318.856 106.987C319.052 106.792 319.052 106.596 318.856 106.4C318.661 106.4 318.465 106.4 318.269 106.498Z" fill="url(#paint14_linear_6876_65124)"/>
<path d="M129.468 98.77C129.468 98.77 129.468 98.6722 129.37 98.6722L129.273 98.5744H128.979C128.979 98.5744 128.881 98.5743 128.881 98.6722L120.371 107.183V98.9656C120.371 98.77 120.175 98.5744 119.979 98.5744H119.881C119.686 98.5744 119.49 98.77 119.49 98.9656V108.259C119.49 108.259 119.49 108.357 119.588 108.357L119.686 108.455H119.979C119.979 108.455 120.077 108.455 120.077 108.357L128.588 99.8461V108.063C128.588 108.259 128.784 108.455 128.979 108.455H129.077C129.273 108.455 129.468 108.259 129.468 108.063V98.8678C129.468 98.8678 129.468 98.8678 129.468 98.77Z" fill="url(#paint15_linear_6876_65124)"/>
<path d="M179.652 98.77C179.652 98.77 179.652 98.6722 179.554 98.6722L179.457 98.5744H179.163C179.163 98.5744 179.065 98.5743 179.065 98.6722L170.555 107.183V98.9656C170.555 98.77 170.359 98.5744 170.163 98.5744H170.065C169.87 98.5744 169.674 98.77 169.674 98.9656V108.259C169.674 108.259 169.674 108.357 169.772 108.357L169.87 108.455H170.163C170.163 108.455 170.261 108.455 170.261 108.357L178.772 99.8461V108.063C178.772 108.259 178.967 108.455 179.163 108.455H179.261C179.457 108.455 179.652 108.259 179.652 108.063V98.8678C179.652 98.8678 179.652 98.8678 179.652 98.77Z" fill="url(#paint16_linear_6876_65124)"/>
<path d="M175.544 97.107C175.739 97.107 175.935 96.9113 175.935 96.7157V96.6179C175.935 96.4222 175.739 96.2266 175.544 96.2266H173.783C173.587 96.2266 173.391 96.4222 173.391 96.6179V96.7157C173.391 96.9113 173.587 97.107 173.783 97.107H175.544Z" fill="url(#paint17_linear_6876_65124)"/>
<path d="M285.987 107.77H277.183V103.955H283.737C283.933 103.955 284.129 103.759 284.129 103.563V103.466C284.129 103.27 283.933 103.074 283.737 103.074H277.183V99.2591H285.987C286.183 99.2591 286.379 99.0635 286.379 98.8678C286.379 98.6722 286.183 98.4765 285.987 98.4765H276.89C276.89 98.4765 276.89 98.4765 276.792 98.4765C276.596 98.4765 276.401 98.6722 276.401 98.8678V108.063C276.401 108.259 276.596 108.455 276.792 108.455H285.987C286.183 108.455 286.379 108.259 286.379 108.063C286.379 107.868 286.281 107.77 285.987 107.77Z" fill="url(#paint18_linear_6876_65124)"/>
<path d="M103.903 81.8467C104.588 81.8467 105.077 81.3576 105.077 80.6728V69.7165H121.316L127.088 81.1619C127.283 81.5532 127.675 81.8467 128.164 81.8467C128.359 81.8467 128.555 81.8467 128.653 81.7489C129.24 81.4554 129.436 80.7706 129.142 80.1837L123.37 68.5426L129.142 56.9015C129.436 56.3145 129.24 55.6297 128.653 55.3363C128.066 55.0428 127.381 55.2384 127.088 55.8254L121.316 67.2708H105.077V56.3145C105.077 55.6297 104.588 55.1406 103.903 55.1406C103.219 55.1406 102.729 55.6297 102.729 56.3145V80.575C102.632 81.3576 103.219 81.8467 103.903 81.8467Z" fill="url(#paint19_linear_6876_65124)"/>
<path d="M137.751 80.6728V69.8143H154.772C158.783 69.8143 162.011 66.5861 162.011 62.5753C162.011 58.5645 158.783 55.3363 154.772 55.3363H136.577C135.892 55.3363 135.403 55.8254 135.403 56.5102C135.403 57.1949 135.892 57.6841 136.577 57.6841H154.772C157.511 57.6841 159.663 59.8362 159.663 62.5753C159.663 65.3144 157.511 67.4665 154.772 67.4665H136.577C135.892 67.4665 135.403 67.9556 135.403 68.6404V80.7706C135.403 81.4554 135.892 81.9445 136.577 81.9445C137.261 81.9445 137.751 81.3576 137.751 80.6728Z" fill="url(#paint20_linear_6876_65124)"/>
<path d="M256.803 55.2385H232.542C231.858 55.2385 231.369 55.7276 231.369 56.4123C231.369 57.0971 231.858 57.5862 232.542 57.5862H243.499V80.6728C243.499 81.3576 243.988 81.8467 244.673 81.8467C245.357 81.8467 245.847 81.3576 245.847 80.6728V57.5862H256.803C257.488 57.5862 257.977 57.0971 257.977 56.4123C257.977 55.8254 257.488 55.2385 256.803 55.2385Z" fill="url(#paint21_linear_6876_65124)"/>
<path d="M275.096 55.9232C274.9 55.5319 274.509 55.3363 274.02 55.3363C273.531 55.3363 273.14 55.5319 272.944 55.9232L260.814 80.1837C260.52 80.7706 260.716 81.4554 261.303 81.7489C261.498 81.8467 261.694 81.8467 261.792 81.8467C262.183 81.8467 262.672 81.6511 262.868 81.1619L268.64 69.7165H279.303L285.074 81.1619C285.368 81.7489 286.052 81.9445 286.639 81.6511C287.226 81.3576 287.422 80.6728 287.129 80.0859L275.096 55.9232ZM269.911 67.3687L274.118 59.0536L278.324 67.3687H269.911Z" fill="url(#paint22_linear_6876_65124)"/>
<path d="M318.726 80.1837L306.596 55.9232C306.4 55.5319 306.009 55.3363 305.52 55.3363C305.03 55.3363 304.639 55.5319 304.443 55.9232L292.313 80.1837C292.02 80.7706 292.215 81.4554 292.802 81.7489C292.998 81.8467 293.194 81.8467 293.291 81.8467C293.683 81.8467 294.172 81.6511 294.368 81.1619L305.52 59.0536L316.574 81.1619C316.867 81.7489 317.552 81.9445 318.139 81.6511C318.432 81.5532 318.628 81.2597 318.726 80.9663C318.921 80.7706 318.921 80.4772 318.726 80.1837Z" fill="url(#paint23_linear_6876_65124)"/>
<path d="M194 56.5102C194 56.2167 193.902 55.8254 193.706 55.6297C193.217 55.1406 192.532 55.1406 192.043 55.6297L169.837 77.8359V56.3145C169.837 55.7276 169.348 55.2385 168.761 55.2385H168.565C167.978 55.2385 167.489 55.7276 167.489 56.3145V80.7706C167.489 81.3576 167.978 81.8467 168.565 81.8467H168.761C169.152 81.8467 169.544 81.651 169.739 81.2597L191.75 59.2492V80.7706C191.75 81.3576 192.239 81.8467 192.826 81.8467H193.021C193.608 81.8467 194.097 81.3576 194.097 80.7706L194 56.5102Z" fill="url(#paint24_linear_6876_65124)"/>
<path d="M224.325 75.1946C223.836 74.7055 223.053 74.8033 222.662 75.3903C222.662 75.3903 222.662 75.3903 222.564 75.4881C222.369 75.7816 222.075 76.0751 221.88 76.2707L221.782 76.3685C221.586 76.5642 221.293 76.8576 221.097 77.0533L220.999 77.1511C220.706 77.3468 220.412 77.5424 220.119 77.7381C220.021 77.7381 220.021 77.8359 219.923 77.8359C219.63 78.0315 219.336 78.2272 219.043 78.325C218.749 78.5207 218.358 78.6185 218.064 78.7163C217.967 78.7163 217.869 78.8141 217.869 78.8141C217.575 78.912 217.184 79.0098 216.793 79.1076C216.695 79.1076 216.695 79.1076 216.597 79.1076C216.304 79.2054 215.912 79.2054 215.619 79.3033C215.521 79.3033 215.521 79.3033 215.423 79.3033C215.032 79.3033 214.641 79.4011 214.347 79.4011H214.249C214.151 79.4011 214.151 79.4011 214.054 79.4011C213.76 79.4011 213.467 79.4011 213.173 79.4011C213.075 79.4011 212.978 79.4011 212.978 79.4011C212.88 79.4011 212.88 79.4011 212.782 79.4011C212.097 79.3033 211.412 79.2054 210.825 78.912C210.728 78.912 210.728 78.912 210.63 78.8141C210.336 78.7163 210.141 78.6185 209.847 78.5207C209.749 78.5207 209.652 78.4228 209.554 78.4228C209.358 78.325 209.065 78.2272 208.869 78.0315C208.771 77.9337 208.673 77.9337 208.575 77.8359C208.282 77.6402 208.086 77.5424 207.891 77.3468C207.695 77.2489 207.597 77.1511 207.499 77.0533C207.402 76.9555 207.206 76.8576 207.108 76.662C207.01 76.5642 206.815 76.3685 206.717 76.2707C206.619 76.1729 206.521 76.0751 206.423 75.9772C206.326 75.8794 206.13 75.6838 206.032 75.5859C205.934 75.4881 205.836 75.3903 205.739 75.1946C205.641 75.0968 205.543 74.9012 205.445 74.8033C205.249 74.5099 205.054 74.3142 204.956 74.0207C204.858 73.9229 204.858 73.8251 204.76 73.7273C204.662 73.5316 204.565 73.336 204.369 73.0425C204.369 72.9447 204.271 72.8468 204.271 72.749C204.173 72.5534 204.076 72.2599 203.978 72.0643C203.978 71.9664 203.88 71.8686 203.88 71.7708C203.782 71.4773 203.684 71.1838 203.586 70.8904V70.7925C203.489 70.4991 203.489 70.1078 203.391 69.7165C203.391 69.7165 203.391 69.7165 203.391 69.6186C203.391 69.423 203.391 69.2273 203.391 68.9339C203.391 68.7382 203.391 68.5426 203.391 68.3469C203.391 68.1513 203.391 67.9556 203.391 67.76C203.391 67.5643 203.391 67.3687 203.391 67.0752C203.391 67.0752 203.391 67.0752 203.391 66.9774C203.391 66.5861 203.489 66.2926 203.586 65.9013V65.8035C203.684 65.51 203.782 65.2165 203.88 64.9231C203.88 64.8252 203.978 64.7274 203.978 64.6296C204.076 64.3361 204.173 64.1405 204.271 63.9448C204.271 63.847 204.369 63.7492 204.369 63.6513C204.467 63.4557 204.565 63.1622 204.76 62.9666C204.858 62.8688 204.858 62.7709 204.956 62.6731C205.152 62.3796 205.249 62.184 205.445 61.8905C205.543 61.7927 205.641 61.597 205.739 61.4992C205.836 61.4014 205.934 61.2057 206.032 61.1079C206.13 61.0101 206.326 60.8144 206.423 60.7166C206.521 60.6188 206.619 60.521 206.717 60.4231C206.815 60.3253 207.01 60.1297 207.108 60.0318C207.206 59.934 207.402 59.8362 207.499 59.7384C207.597 59.6405 207.793 59.5427 207.891 59.4449C208.086 59.2492 208.38 59.1514 208.673 58.9558C208.771 58.8579 208.869 58.858 208.967 58.7601C209.162 58.6623 209.358 58.5645 209.652 58.3688C209.749 58.3688 209.847 58.271 209.945 58.271C210.238 58.1732 210.434 58.0754 210.728 57.9775C210.825 57.9775 210.825 57.9775 210.923 57.8797C211.608 57.6841 212.195 57.4884 212.88 57.3906C212.978 57.3906 212.978 57.3906 213.075 57.3906C213.173 57.3906 213.271 57.3906 213.271 57.3906C213.565 57.3906 213.858 57.3906 214.151 57.3906C214.249 57.3906 214.249 57.3906 214.347 57.3906H214.445C214.836 57.3906 215.228 57.3906 215.521 57.4884C215.619 57.4884 215.619 57.4884 215.717 57.4884C216.01 57.4884 216.401 57.5862 216.695 57.6841C216.793 57.6841 216.793 57.6841 216.891 57.6841C217.282 57.7819 217.575 57.8797 217.967 57.9775C218.064 57.9775 218.162 58.0754 218.162 58.0754C218.456 58.1732 218.847 58.3688 219.141 58.4666C219.434 58.6623 219.727 58.7601 220.021 58.9558C220.119 58.9558 220.119 59.0536 220.217 59.0536C220.51 59.2493 220.804 59.4449 221.097 59.6406L221.195 59.7384C221.488 59.934 221.684 60.1297 221.88 60.4231L221.977 60.521C222.271 60.8144 222.467 61.0101 222.662 61.3036C222.662 61.3036 222.662 61.3036 222.76 61.4014C223.151 61.8905 223.934 61.9883 224.423 61.597C224.912 61.2057 224.912 60.521 224.619 60.0318C224.521 59.8362 224.325 59.7384 224.227 59.5427C224.227 59.5427 224.227 59.4449 224.13 59.4449C223.934 59.2492 223.738 59.0536 223.543 58.858C223.445 58.7601 223.445 58.7601 223.347 58.6623C223.249 58.5645 223.053 58.3688 222.956 58.271C222.858 58.1732 222.76 58.1732 222.76 58.0754C222.662 57.9775 222.467 57.8797 222.271 57.6841C222.173 57.5862 222.173 57.5862 222.075 57.4884C221.88 57.3906 221.684 57.1949 221.488 57.0971L221.39 56.9993C221.195 56.8036 220.901 56.7058 220.706 56.608C220.608 56.608 220.608 56.5102 220.51 56.5102C220.314 56.4123 220.119 56.3145 219.923 56.2167C219.825 56.2167 219.727 56.1189 219.63 56.1189C219.434 56.021 219.238 55.9232 219.141 55.9232C219.043 55.9232 218.945 55.8254 218.847 55.8254C218.651 55.7276 218.456 55.6297 218.26 55.6297C218.162 55.6297 218.162 55.6297 218.064 55.5319C217.771 55.4341 217.478 55.3363 217.184 55.3363C217.086 55.3363 217.086 55.3363 216.988 55.3363C216.793 55.3363 216.597 55.2385 216.304 55.2385C216.206 55.2385 216.108 55.2385 216.01 55.2385C215.814 55.2385 215.619 55.1406 215.423 55.1406C215.325 55.1406 215.228 55.1406 215.13 55.1406C214.934 55.1406 214.738 55.1406 214.445 55.1406C214.347 55.1406 214.249 55.1406 214.151 55.1406C214.054 55.1406 213.956 55.1406 213.956 55.1406C213.565 55.1406 213.173 55.1406 212.782 55.2385C212.684 55.2385 212.586 55.2385 212.488 55.2385C211.119 55.4341 209.847 55.7276 208.673 56.3145C208.575 56.3145 208.575 56.4123 208.478 56.4123C208.184 56.608 207.793 56.7058 207.499 56.9015C207.402 56.9015 207.304 56.9993 207.304 56.9993C207.01 57.1949 206.619 57.3906 206.326 57.6841C206.326 57.6841 206.228 57.6841 206.228 57.7819C205.934 57.9775 205.543 58.271 205.249 58.5645C205.152 58.6623 205.054 58.7601 204.956 58.858C204.76 59.0536 204.565 59.2492 204.369 59.4449C204.271 59.5427 204.173 59.7384 203.978 59.8362C203.782 60.0318 203.684 60.2275 203.489 60.4231C203.391 60.521 203.293 60.7166 203.195 60.8144C202.999 61.1079 202.804 61.4014 202.608 61.6949C202.608 61.7927 202.51 61.7927 202.51 61.8905C202.315 62.184 202.119 62.5753 202.021 62.9666C202.021 63.0644 201.923 63.1622 201.923 63.2601C201.826 63.5535 201.63 63.847 201.532 64.1405C201.532 64.2383 201.434 64.3361 201.434 64.4339C201.336 64.8252 201.239 65.1187 201.141 65.51C201.141 65.6078 201.141 65.6078 201.141 65.7057C201.043 66.097 200.945 66.5861 200.945 67.0752C200.945 67.3687 200.945 67.5643 200.945 67.8578C200.945 68.0534 200.945 68.2491 200.945 68.5426C200.945 68.7382 200.945 68.9339 200.945 69.2273C200.945 69.5208 200.945 69.7165 200.945 70.0099C201.043 70.4991 201.043 70.8904 201.141 71.3795C201.141 71.4773 201.141 71.4773 201.141 71.5751C201.239 71.9664 201.336 72.2599 201.434 72.6512C201.434 72.749 201.532 72.8468 201.532 72.9447C201.63 73.2381 201.728 73.5316 201.923 73.8251C201.923 73.9229 202.021 74.0207 202.021 74.1186C202.217 74.5099 202.413 74.8033 202.51 75.1946C202.51 75.2925 202.608 75.2925 202.608 75.3903C202.804 75.6838 202.999 75.9772 203.195 76.2707C203.293 76.3685 203.391 76.5642 203.489 76.662C203.684 76.8576 203.782 77.0533 203.978 77.249C204.076 77.3468 204.173 77.5424 204.369 77.6402C204.565 77.8359 204.76 78.0315 204.956 78.2272C205.054 78.325 205.152 78.4228 205.249 78.5207C205.543 78.8141 205.836 79.0098 206.228 79.3033C206.228 79.3033 206.326 79.3033 206.326 79.4011C206.619 79.5967 207.01 79.8902 207.304 80.0859C207.402 80.0859 207.499 80.1837 207.499 80.1837C207.793 80.3793 208.086 80.575 208.478 80.6728C208.575 80.6728 208.575 80.7706 208.673 80.7706C209.847 81.2597 211.119 81.651 212.488 81.8467C212.586 81.8467 212.684 81.8467 212.782 81.8467C213.173 81.8467 213.565 81.9445 213.956 81.9445C214.054 81.9445 214.151 81.9445 214.151 81.9445C214.249 81.9445 214.347 81.9445 214.445 81.9445C214.641 81.9445 214.836 81.9445 215.13 81.9445C215.228 81.9445 215.325 81.9445 215.423 81.9445C215.619 81.9445 215.814 81.9445 216.01 81.8467C216.108 81.8467 216.206 81.8467 216.304 81.8467C216.499 81.8467 216.793 81.7489 216.988 81.7489C217.086 81.7489 217.086 81.7489 217.184 81.7489C217.478 81.651 217.771 81.651 218.064 81.5532C218.162 81.5532 218.162 81.5532 218.26 81.4554C218.456 81.3576 218.651 81.3576 218.847 81.2597C218.945 81.2597 219.043 81.1619 219.141 81.1619C219.336 81.0641 219.532 80.9663 219.63 80.9663C219.727 80.9663 219.825 80.8685 219.923 80.8685C220.119 80.7706 220.314 80.6728 220.51 80.575C220.608 80.575 220.608 80.4771 220.706 80.4771C220.999 80.3793 221.195 80.1837 221.39 80.0859L221.488 79.988C221.684 79.8902 221.88 79.6946 222.075 79.5967C222.173 79.4989 222.271 79.4989 222.271 79.4011C222.467 79.3033 222.564 79.2054 222.76 79.0098C222.858 78.912 222.956 78.912 222.956 78.8141C223.151 78.7163 223.249 78.5207 223.347 78.4228C223.445 78.325 223.445 78.325 223.543 78.2272C223.738 78.0315 223.934 77.8359 224.13 77.6402C224.13 77.6402 224.13 77.5424 224.227 77.5424C224.325 77.3468 224.521 77.2489 224.619 77.0533C224.814 76.2707 224.814 75.5859 224.325 75.1946Z" fill="url(#paint25_linear_6876_65124)"/>
<path d="M83.8355 14.4461C83.8355 14.3483 83.8355 14.3483 83.8355 14.3483C83.8355 14.2504 83.8355 14.2504 83.7377 14.1526L83.6399 14.0548C83.6399 14.0548 83.6399 13.957 83.5421 13.957L70.1401 0.555023C70.0423 0.457198 70.0423 0.457199 69.9445 0.359375C69.9445 0.359375 69.9445 0.359375 69.8466 0.359375C69.7488 0.359375 69.651 0.359375 69.651 0.359375C69.5532 0.359375 69.4553 0.359375 69.4553 0.359375L58.2055 3.97888C58.1077 3.97888 58.0099 4.0767 57.9121 4.0767L37.8581 20.0221L37.6624 20.2177C37.6624 20.3156 37.6624 20.3156 37.5646 20.4134C37.5646 20.5112 37.5646 20.5112 37.5646 20.609V45.3586L19.3692 49.0759C19.2714 49.0759 19.2714 49.0759 19.1736 49.1738H19.0758L11.0541 55.1411C10.8585 55.2389 10.7607 55.5324 10.7607 55.728V68.3474L0.489122 72.5538C0.195649 72.6516 0 72.9451 0 73.2386V108.749C0 108.749 0 108.749 0 108.847C0 108.945 0 108.945 0 109.042V109.14L0.391292 109.531H83.0529C83.4442 109.531 83.8355 109.14 83.8355 108.749V14.4461ZM11.9346 70.206L67.1076 108.064H1.76083L11.9346 70.206ZM39.2276 25.2068L64.6619 97.1077L39.2276 45.8477V25.2068ZM39.4232 21.2938L68.8684 17.1852V104.347L39.4232 21.2938ZM70.4336 3.00063L81.3899 13.957L70.4336 15.4243V3.00063ZM58.7925 5.44625L68.8684 2.21804V15.7178L41.0863 19.533L58.7925 5.44625ZM37.9559 46.9238L66.1293 103.564L20.9344 50.3477L37.9559 46.9238ZM19.3692 50.9346L65.3467 105.032L12.2281 68.543V56.2171L19.3692 50.9346ZM10.2716 70.3038L1.46737 103.075V74.0212L10.2716 70.3038ZM70.4336 17.0874L82.2704 15.4243V108.162H70.4336V17.0874Z" fill="url(#paint26_linear_6876_65124)"/>
<defs>
<linearGradient id="paint0_linear_6876_65124" x1="102.719" y1="40.7607" x2="232.758" y2="-31.4536" gradientUnits="userSpaceOnUse">
<stop stop-color="#A647AB"/>
<stop offset="1" stop-color="#184ECA"/>
</linearGradient>
<linearGradient id="paint1_linear_6876_65124" x1="102.719" y1="40.7607" x2="232.758" y2="-31.4536" gradientUnits="userSpaceOnUse">
<stop stop-color="#A647AB"/>
<stop offset="1" stop-color="#184ECA"/>
</linearGradient>
<linearGradient id="paint2_linear_6876_65124" x1="102.719" y1="40.7607" x2="232.758" y2="-31.4536" gradientUnits="userSpaceOnUse">
<stop stop-color="#A647AB"/>
<stop offset="1" stop-color="#184ECA"/>
</linearGradient>
<linearGradient id="paint3_linear_6876_65124" x1="102.719" y1="40.7607" x2="232.758" y2="-31.4536" gradientUnits="userSpaceOnUse">
<stop stop-color="#A647AB"/>
<stop offset="1" stop-color="#184ECA"/>
</linearGradient>
<linearGradient id="paint4_linear_6876_65124" x1="102.719" y1="40.7607" x2="232.758" y2="-31.4536" gradientUnits="userSpaceOnUse">
<stop stop-color="#A647AB"/>
<stop offset="1" stop-color="#184ECA"/>
</linearGradient>
<linearGradient id="paint5_linear_6876_65124" x1="102.719" y1="108.552" x2="164.948" y2="4.28399" gradientUnits="userSpaceOnUse">
<stop stop-color="#A647AB"/>
<stop offset="1" stop-color="#184ECA"/>
</linearGradient>
<linearGradient id="paint6_linear_6876_65124" x1="102.719" y1="108.552" x2="164.948" y2="4.28399" gradientUnits="userSpaceOnUse">
<stop stop-color="#A647AB"/>
<stop offset="1" stop-color="#184ECA"/>
</linearGradient>
<linearGradient id="paint7_linear_6876_65124" x1="102.719" y1="108.552" x2="164.948" y2="4.28399" gradientUnits="userSpaceOnUse">
<stop stop-color="#A647AB"/>
<stop offset="1" stop-color="#184ECA"/>
</linearGradient>
<linearGradient id="paint8_linear_6876_65124" x1="102.719" y1="108.552" x2="164.948" y2="4.28399" gradientUnits="userSpaceOnUse">
<stop stop-color="#A647AB"/>
<stop offset="1" stop-color="#184ECA"/>
</linearGradient>
<linearGradient id="paint9_linear_6876_65124" x1="102.719" y1="108.552" x2="164.948" y2="4.28399" gradientUnits="userSpaceOnUse">
<stop stop-color="#A647AB"/>
<stop offset="1" stop-color="#184ECA"/>
</linearGradient>
<linearGradient id="paint10_linear_6876_65124" x1="102.719" y1="108.552" x2="164.948" y2="4.28399" gradientUnits="userSpaceOnUse">
<stop stop-color="#A647AB"/>
<stop offset="1" stop-color="#184ECA"/>
</linearGradient>
<linearGradient id="paint11_linear_6876_65124" x1="102.719" y1="108.552" x2="164.948" y2="4.28399" gradientUnits="userSpaceOnUse">
<stop stop-color="#A647AB"/>
<stop offset="1" stop-color="#184ECA"/>
</linearGradient>
<linearGradient id="paint12_linear_6876_65124" x1="102.719" y1="108.552" x2="164.948" y2="4.28399" gradientUnits="userSpaceOnUse">
<stop stop-color="#A647AB"/>
<stop offset="1" stop-color="#184ECA"/>
</linearGradient>
<linearGradient id="paint13_linear_6876_65124" x1="102.719" y1="108.552" x2="164.948" y2="4.28399" gradientUnits="userSpaceOnUse">
<stop stop-color="#A647AB"/>
<stop offset="1" stop-color="#184ECA"/>
</linearGradient>
<linearGradient id="paint14_linear_6876_65124" x1="102.719" y1="108.552" x2="164.948" y2="4.28399" gradientUnits="userSpaceOnUse">
<stop stop-color="#A647AB"/>
<stop offset="1" stop-color="#184ECA"/>
</linearGradient>
<linearGradient id="paint15_linear_6876_65124" x1="102.719" y1="108.552" x2="164.948" y2="4.28399" gradientUnits="userSpaceOnUse">
<stop stop-color="#A647AB"/>
<stop offset="1" stop-color="#184ECA"/>
</linearGradient>
<linearGradient id="paint16_linear_6876_65124" x1="102.719" y1="108.552" x2="164.948" y2="4.28399" gradientUnits="userSpaceOnUse">
<stop stop-color="#A647AB"/>
<stop offset="1" stop-color="#184ECA"/>
</linearGradient>
<linearGradient id="paint17_linear_6876_65124" x1="102.719" y1="108.552" x2="164.948" y2="4.28399" gradientUnits="userSpaceOnUse">
<stop stop-color="#A647AB"/>
<stop offset="1" stop-color="#184ECA"/>
</linearGradient>
<linearGradient id="paint18_linear_6876_65124" x1="102.719" y1="108.552" x2="164.948" y2="4.28399" gradientUnits="userSpaceOnUse">
<stop stop-color="#A647AB"/>
<stop offset="1" stop-color="#184ECA"/>
</linearGradient>
<linearGradient id="paint19_linear_6876_65124" x1="102.719" y1="81.9445" x2="251.368" y2="-32.5224" gradientUnits="userSpaceOnUse">
<stop stop-color="#A647AB"/>
<stop offset="1" stop-color="#184ECA"/>
</linearGradient>
<linearGradient id="paint20_linear_6876_65124" x1="102.719" y1="81.9445" x2="251.368" y2="-32.5224" gradientUnits="userSpaceOnUse">
<stop stop-color="#A647AB"/>
<stop offset="1" stop-color="#184ECA"/>
</linearGradient>
<linearGradient id="paint21_linear_6876_65124" x1="102.719" y1="81.9445" x2="251.368" y2="-32.5224" gradientUnits="userSpaceOnUse">
<stop stop-color="#A647AB"/>
<stop offset="1" stop-color="#184ECA"/>
</linearGradient>
<linearGradient id="paint22_linear_6876_65124" x1="102.719" y1="81.9445" x2="251.368" y2="-32.5224" gradientUnits="userSpaceOnUse">
<stop stop-color="#A647AB"/>
<stop offset="1" stop-color="#184ECA"/>
</linearGradient>
<linearGradient id="paint23_linear_6876_65124" x1="102.719" y1="81.9445" x2="251.368" y2="-32.5224" gradientUnits="userSpaceOnUse">
<stop stop-color="#A647AB"/>
<stop offset="1" stop-color="#184ECA"/>
</linearGradient>
<linearGradient id="paint24_linear_6876_65124" x1="102.719" y1="81.9445" x2="251.368" y2="-32.5224" gradientUnits="userSpaceOnUse">
<stop stop-color="#A647AB"/>
<stop offset="1" stop-color="#184ECA"/>
</linearGradient>
<linearGradient id="paint25_linear_6876_65124" x1="102.719" y1="81.9445" x2="251.368" y2="-32.5224" gradientUnits="userSpaceOnUse">
<stop stop-color="#A647AB"/>
<stop offset="1" stop-color="#184ECA"/>
</linearGradient>
<linearGradient id="paint26_linear_6876_65124" x1="0" y1="109.531" x2="91.3497" y2="102.833" gradientUnits="userSpaceOnUse">
<stop stop-color="#A647AB"/>
<stop offset="1" stop-color="#184ECA"/>
</linearGradient>
</defs>
</svg>
