<svg width="40" height="40" viewBox="0 0 40 40" fill="none" xmlns="http://www.w3.org/2000/svg">
<path d="M28.6333 30C32.6333 30 33.6333 27.75 33.6333 25V15C33.6333 12.25 32.6333 10 28.6333 10C24.6333 10 23.6333 12.25 23.6333 15V25C23.6333 27.75 24.6333 30 28.6333 30Z" stroke="url(#paint0_linear_845_2357)" stroke-width="1.5" stroke-linecap="round" stroke-linejoin="round"/>
<path d="M11.3667 30C7.3667 30 6.3667 27.75 6.3667 25V15C6.3667 12.25 7.3667 10 11.3667 10C15.3667 10 16.3667 12.25 16.3667 15V25C16.3667 27.75 15.3667 30 11.3667 30Z" stroke="url(#paint1_linear_845_2357)" stroke-width="1.5" stroke-linecap="round" stroke-linejoin="round"/>
<path d="M16.3667 20H23.6334" stroke="url(#paint2_linear_845_2357)" stroke-width="1.5" stroke-linecap="round" stroke-linejoin="round"/>
<path d="M37.5 24.1663V15.833" stroke="url(#paint3_linear_845_2357)" stroke-width="1.5" stroke-linecap="round" stroke-linejoin="round"/>
<path d="M2.5 24.1663V15.833" stroke="url(#paint4_linear_845_2357)" stroke-width="1.5" stroke-linecap="round" stroke-linejoin="round"/>
<defs>
<linearGradient id="paint0_linear_845_2357" x1="23.6333" y1="30" x2="34.5633" y2="29.4782" gradientUnits="userSpaceOnUse">
<stop stop-color="#A647AB"/>
<stop offset="1" stop-color="#184ECA"/>
</linearGradient>
<linearGradient id="paint1_linear_845_2357" x1="6.3667" y1="30" x2="17.2967" y2="29.4782" gradientUnits="userSpaceOnUse">
<stop stop-color="#A647AB"/>
<stop offset="1" stop-color="#184ECA"/>
</linearGradient>
<linearGradient id="paint2_linear_845_2357" x1="16.3667" y1="21" x2="21.7401" y2="17.2715" gradientUnits="userSpaceOnUse">
<stop stop-color="#A647AB"/>
<stop offset="1" stop-color="#184ECA"/>
</linearGradient>
<linearGradient id="paint3_linear_845_2357" x1="37.5" y1="24.1663" x2="38.5953" y2="24.1538" gradientUnits="userSpaceOnUse">
<stop stop-color="#A647AB"/>
<stop offset="1" stop-color="#184ECA"/>
</linearGradient>
<linearGradient id="paint4_linear_845_2357" x1="2.5" y1="24.1663" x2="3.59535" y2="24.1538" gradientUnits="userSpaceOnUse">
<stop stop-color="#A647AB"/>
<stop offset="1" stop-color="#184ECA"/>
</linearGradient>
</defs>
</svg>
